<svg xmlns="http://www.w3.org/2000/svg" width="351.522" height="356" viewBox="0 0 351.522 356">
  <g id="Group_29" data-name="Group 29" transform="translate(290.281 -372.117)" opacity="0.05">
    <path id="Path_185" data-name="Path 185" d="M5.254,564.071c9.226,30.581,3.17,61.149,4.772,91.313.358,6.735-4.143,9.47-10.216,9.682-6.674.235-13.363.09-20.046.056-10.609-.053-13.347-2.719-13.456-13.038-.03-2.874,0-5.749,0-9H-169.45c0,3.9-.079,7.791.018,11.674.168,6.678-3.548,9.98-9.69,10.25-8.271.364-16.588.415-24.848-.045-5.7-.318-9.268-3.518-9.242-9.846.1-24.322-.17-48.652.377-72.965.125-5.6,2.948-11.149,4.73-17.422-2.04-.228-3.973-.582-5.914-.638-9.605-.278-12.295-3.961-9.571-13.235,3.869-13.182,6.793-15.749,20.014-15.771,4.549-.008,6.657-1.572,8.108-5.695,3.707-10.527,7.924-20.876,11.674-31.389,2.834-7.943,8.333-13.219,16.177-15.319,10.24-2.742,20.7-6.216,31.125-6.418,26.664-.515,53.37.284,80.032,1.285,7.294.274,14.6,2.746,21.7,4.884A21.387,21.387,0,0,1-19.9,496.786c3.7,10.808,8.375,21.278,12.123,32.07,1.55,4.461,3.551,6.793,8.481,6.131C15.033,533.061,18.893,542.5,21.223,555c1.067,5.725-1.885,9.193-8.129,9.077C10.5,564.031,7.9,564.071,5.254,564.071Zm-24.364-19.362C-24.3,531.86-29.165,520.423-33.533,508.8c-2.611-6.949-7.3-10.587-14.4-12.152-26.635-5.872-53.573-5.4-80.515-3.806a186.5,186.5,0,0,0-28.4,4.2c-3.55.768-8.078,3.308-9.544,6.315-6.349,13.028-11.73,26.529-18.073,41.276C-128.366,555.9-74.613,556.012-19.109,544.708Zm-18.305,64.315.08.791c6.288-.784,12.747-.914,18.817-2.52,7.318-1.937,9.86-10.431,6.756-20.171-2.276-7.143-8-7.618-13.522-5.442A300.039,300.039,0,0,0-54.8,595.244c-2.108,1.108-4.214,5.789-3.489,7.811.908,2.536,4.5,5.09,7.354,5.72C-46.617,609.728-41.938,609.024-37.415,609.024Zm-127.839.78.075-.751c4,0,8.176.728,11.931-.223,3.157-.8,7.562-3.1,8.206-5.571s-1.9-7.436-4.41-8.785a253.191,253.191,0,0,0-28.18-12.765c-5.049-1.963-10.806-2.618-12.964,4.624-3.083,10.358-.622,19.2,6.492,21.031C-178.016,608.936-171.552,609.046-165.254,609.8Z" transform="translate(39.676 62.817)" fill="#08557b"/>
    <path id="Path_186" data-name="Path 186" d="M-273.809,499.249a9.354,9.354,0,0,0-1.3-.576c-5.868-1.1-14.727,3.024-15.15-7.873-.453-11.663,7.878-21.7,18.073-21.111,7.229.417,10.338-2.1,12.348-8.777,2.751-9.138,6.862-17.858,9.944-26.909,3.237-9.5,9.908-15.182,19.248-17.377,10.314-2.422,20.789-5.13,31.29-5.616,30.35-1.4,60.761-3.028,90.875,3.7,12.853,2.871,21.552,9.077,25.259,22.283,2.574,9.175,6.808,17.872,9.9,26.921,1.407,4.119,3.348,5.718,7.935,5.7,13.509-.064,20.384,6.6,21.359,20.341.361,5.107-1.62,8.41-7.751,8.662-17.009.7-34.1,1.059-50.961,3.154-12,1.492-23.9,4.9-35.416,8.72-9.134,3.032-15.619,9.957-19.226,19.188-1.838,4.7-4.284,9.225-5.63,14.06-2.576,9.255-6.055,16.719-17.138,18.689-4.14.737-8.875,4.708-11.028,8.513-3.279,5.8-7.5,6.343-13.087,6.184-9.807-.278-19.627-.077-30.275-.077,0,4.528.136,8.2-.029,11.87-.313,6.933-3.511,10.883-11,10.688-7.744-.2-15.5-.074-23.246-.043-7.019.027-10.263-3.784-10.285-10.441-.077-23.246-.407-46.5.216-69.731C-278.708,512.723-275.63,506.139-273.809,499.249Zm23.557-19.7c56.2,10.917,109.675,11.079,165.538.1-5.157-12.776-10.163-24.075-14.258-35.7-2.887-8.192-8.683-11.936-16.515-12.916-13.2-1.649-26.483-4.009-39.7-3.827-21.528.295-43.072,1.982-64.513,4.064-4.557.443-10.619,4.086-12.686,8C-238.913,451.625-243.87,464.8-250.252,479.552ZM-228.7,544.7c3.07-.318,7.93-.3,12.516-1.413,6.756-1.638,9.037-9.283,3.353-12.4a222.984,222.984,0,0,0-33.93-14.725c-6.111-2.125-9.8,1.665-10.045,8.608-.542,15.463.754,17.272,16.042,19.268C-237.348,544.488-233.868,544.437-228.7,544.7Z" transform="translate(0 22.737)" fill="#08557b"/>
    <path id="Path_187" data-name="Path 187" d="M-78.737,523.55c-2.225-9.724-3.709-18.514-6.3-26.965-3.229-10.529-10.914-16.5-21.622-19.226a12.252,12.252,0,0,1-6.994-6.014c-3.069-6.4-5.181-13.267-8-20.817,30.384.135,59.816-1.193,90.659-8.864-6.044-14.326-10.975-28.332-17.965-41.224-2.2-4.058-9.7-6.471-15.147-7.337-32.083-5.1-64.261-5.032-96.5-.7-10.744,1.444-18.828,5.609-22.242,16.3-2.478,7.76-6.771,11.392-15.114,8.546-1.7-.58-3.654-.415-6.849-.727,4.371-9.725,7.383-19.539,12.826-27.739,6.67-10.046,18.783-12.017,29.694-13.459a377.842,377.842,0,0,1,97.444-.095c6.782.861,13.955,2.377,19.812,5.633a32.451,32.451,0,0,1,12.651,13.171c5.165,10.437,8.869,21.624,12.767,32.647,1.484,4.191,3.53,6.1,8.081,5.675,15.511-1.439,17.821,7.311,20.711,18.96,1.667,6.715-1.457,9.907-8.511,10.29-2.364.128-4.743.019-7.3.019C2.517,491.737-3.654,522-1.826,551.847c.321,5.266-1.907,9.037-7.007,10.085-1.841.379-5.608-1.1-6.042-2.488-9.109-29.248-33.714-32.4-58.573-35.229C-75.791,523.948-78.125,523.627-78.737,523.55Zm28.913-17.041v.1c3.46,0,6.926.129,10.38-.024,13.732-.606,17.911-5.58,16.316-19.26-.813-6.971-5.5-11.193-12.091-8.811a272.1,272.1,0,0,0-31.768,14.356c-2.021,1.041-3.777,5.665-3.147,7.943.65,2.342,4.145,4.907,6.792,5.455C-59.006,507.164-54.348,506.509-49.824,506.509Z" transform="translate(51.627 0)" fill="#08557b"/>
  </g>
</svg>
