<svg xmlns="http://www.w3.org/2000/svg" width="24.701" height="22.393" viewBox="0 0 24.701 22.393">
  <g id="Group_156" data-name="Group 156" transform="translate(1790 521)">
    <path id="Path_311" data-name="Path 311" d="M12.7,12.511c-.231.183-.463.381-.708.559a.568.568,0,0,1-.815-.092.583.583,0,0,1,.13-.829,12.146,12.146,0,0,0,.877-.848.975.975,0,0,0,.231-.8,24.349,24.349,0,0,1,.01-4.7,2.584,2.584,0,0,0-1.393-2.54c-.048-.024-.1-.043-.183-.077v.308q0,7.034,0,14.069a.568.568,0,0,1-.178.443c-.839.839-1.668,1.687-2.5,2.53-.053.053-.111.1-.207.193V6.549A1.537,1.537,0,0,0,6.49,7.734c-.058.588-.053,1.181-.072,1.774-.024.762-.019,1.523-.067,2.28A2.359,2.359,0,0,1,4.774,13.9c-.333.145-.665.275-1,.414a.494.494,0,0,0-.337.337.544.544,0,0,1-.612.357.559.559,0,0,1-.477-.574A1.061,1.061,0,0,1,2.9,13.5c.284-.174.6-.289.906-.439s.6-.289.9-.448a1.131,1.131,0,0,0,.506-.954c-.5.058-.974.13-1.451.169-.352.029-.7-.014-1.056.024a2.057,2.057,0,0,0-1.33.646.573.573,0,0,1-.848.067.559.559,0,0,1,.029-.848c.227-.222.482-.419.733-.636-.12-.13-.26-.27-.386-.424a.572.572,0,0,1,.034-.853.555.555,0,0,1,.829.106,2.225,2.225,0,0,0,2.063.771c.1,0,.193,0,.289-.01A1.055,1.055,0,0,0,5.266,9.489c.01-.482.019-.959.039-1.441,0-.188.034-.376.053-.569a1.308,1.308,0,0,0-1.268.877.566.566,0,0,1-.7.419.55.55,0,0,1-.4-.689A2.2,2.2,0,0,1,4.369,6.534,3.848,3.848,0,0,1,5.825,6.26a.425.425,0,0,0,.255-.082,3.5,3.5,0,0,1,1.644-.8c.2-.043.251-.12.251-.318-.01-1.547,0-3.094,0-4.641,0-.313,0-.313.313-.318h2.579a11.827,11.827,0,0,1-.01,1.243.663.663,0,0,0,.5.8,3.708,3.708,0,0,1,2.222,3.89c-.024.231-.034.463-.058.694-.01.12.029.169.154.188a2.111,2.111,0,0,1,1.817,2.053c.053.54.13,1.08.227,1.615a.661.661,0,0,0,.27.352.6.6,0,0,1,.275.66.535.535,0,0,1-.6.41,1.036,1.036,0,0,1-.921-.742,14.269,14.269,0,0,1-.352-1.634c-.053-.284-.048-.578-.111-.858a.8.8,0,0,0-.771-.694c0,.549-.024,1.1,0,1.653a10.764,10.764,0,0,0,.5,2.974,1.553,1.553,0,0,0,.574.858.536.536,0,0,1,.116.733.566.566,0,0,1-.737.2,1.582,1.582,0,0,1-.737-.766C13.03,13.33,12.876,12.92,12.7,12.511Z" transform="translate(-1790.347 -521.1)" fill="#565656"/>
    <g id="Group_73" data-name="Group 73" transform="matrix(0.996, 0.087, -0.087, 0.996, -1780.49, -516.153)">
      <path id="Path_211" data-name="Path 211" d="M3.263,15.828l.962-1.177q1.839-2.25,3.674-4.5a1.111,1.111,0,0,0,.2-.474,2.156,2.156,0,0,0-.146-1.154c-.073.088-.137.163-.2.239q-2.986,3.654-5.974,7.308a.211.211,0,0,1-.124.078c-.54.049-1.081.091-1.622.135-.006,0-.013,0-.035-.014.085-.106.166-.21.249-.312l4.229-5.218L10.6,3.186,12.888.36A.868.868,0,0,1,13.54,0a.6.6,0,0,1,.415.135c.359.29.719.577,1.075.871a.7.7,0,0,1,.15.82,1.206,1.206,0,0,1-.165.263Q12.9,4.7,10.787,7.309c-.194.24-.392.477-.582.72a.3.3,0,0,0-.059.16,8.487,8.487,0,0,1-.653,2.935,7.386,7.386,0,0,1-3,3.386,11.369,11.369,0,0,1-3.162,1.307C3.318,15.821,3.3,15.822,3.263,15.828ZM10.145,6.91,14.5,1.54,13.535.76C13.5.8,13.468.836,13.44.87Q11.708,3.007,9.979,5.146a.254.254,0,0,0-.042.17c.017.166.051.33.073.5C10.056,6.171,10.1,6.532,10.145,6.91Z" transform="translate(0 0)" fill="#565656"/>
    </g>
  </g>
</svg>
