<svg xmlns="http://www.w3.org/2000/svg" width="217.053" height="53" viewBox="0 0 217.053 53">
  <g id="Group_74" data-name="Group 74" transform="translate(-157.975 -297.44)">
    <path id="Path_67" data-name="Path 67" d="M203.677,302.506c7.533,2.809,13.146,9.008,16.474,17.151a32.268,32.268,0,0,0-17.239-15.1c-7.431-2.771-16.229-3.945-23.82-1.107,7.848-3.971,17.054-3.754,24.585-.945" fill="#08557b"/>
    <path id="Path_68" data-name="Path 68" d="M368.9,306.914c0,1.342-.739,1.968-2.311,1.968h-2.017V304.97h2.017c1.526,0,2.311.712,2.311,1.944m6.123,11.906-2.692-5.763a3.9,3.9,0,0,0-1.995-2.133c2.016-.9,2.937-2.219,2.937-4.056,0-3.38-2.2-4.883-6.706-4.883h-6.214V318.82h4.219v-6.84c.18,0,.316-.048.49-.048a2.8,2.8,0,0,1,3.053,2.042l2.153,4.846Zm-17.428,0v-3.162h-7.243v-4.016h6.728v-3.117h-6.728v-3.42H357.4v-3.12h-11.26V318.82Zm-12.627-16.835h-4.552l-4.443,9.8-4.173-9.8h-4.511l7.649,17h1.819Zm-21.332,8.424c0,3.026-2.02,5.159-4.8,5.159s-4.8-2.133-4.8-5.159,2.018-5.156,4.8-5.156,4.8,2.13,4.8,5.156m4.373,0a8.438,8.438,0,0,0-2.647-6.3,10.043,10.043,0,0,0-13.028,0,8.792,8.792,0,0,0,0,12.582,9.961,9.961,0,0,0,13.028,0,8.35,8.35,0,0,0,2.647-6.281m-19.964,7V313.48a10.756,10.756,0,0,1-6.1,2.11,4.828,4.828,0,0,1-5.135-5.181c0-3.228,2.061-5.2,5.473-5.2a10.225,10.225,0,0,1,5.6,1.816V303.08a12.964,12.964,0,0,0-5.874-1.394c-5.856,0-9.556,3.611-9.556,8.723a8.591,8.591,0,0,0,2.627,6.346,9.225,9.225,0,0,0,6.523,2.36,12.6,12.6,0,0,0,6.438-1.709m-18.122-15.421h-4.35V318.82h4.35Zm-11.283,8.4a4.729,4.729,0,0,1-4.867,5.024h-3.117V305.4h3.117a4.707,4.707,0,0,1,4.867,4.993m4.33,0a8.058,8.058,0,0,0-3.275-6.656c-2.088-1.568-4.263-1.748-6.953-1.748h-6.305V318.82h6.305c2.422,0,4.395-.069,6.279-1.278a8.216,8.216,0,0,0,3.949-7.153m-19.2,8.431v-3.162h-7.241v-4.016h6.724v-3.117h-6.724v-3.42h7.04v-3.12H252.31V318.82Zm-14.757,0V301.985h-3.724l-5.428,6.794-5.386-6.794h-3.722V318.82h4.15V308.4l4.958,6.165,5-6.165V318.82Z" fill="#08557b"/>
    <path id="Path_69" data-name="Path 69" d="M180.219,299.315c-7.472,2.96-12.961,9.27-16.127,17.479a32.272,32.272,0,0,1,16.934-15.442,34.437,34.437,0,0,1,23.7-.594c-7.929-3.814-17.037-4.4-24.51-1.443" fill="#08557b"/>
    <path id="Path_70" data-name="Path 70" d="M190.085,303.641c-7.408.328-14.1,4.174-19.331,10.378a29.741,29.741,0,0,1,19.418-8.36c7.311-.326,15.367,1.145,21.226,5.791-5.764-5.715-13.906-8.139-21.313-7.809" fill="#08557b"/>
    <path id="Path_71" data-name="Path 71" d="M191.164,316.661a3.987,3.987,0,1,1-3.99,3.986,3.991,3.991,0,0,1,3.99-3.986" fill="#08557b"/>
    <path id="Path_72" data-name="Path 72" d="M198.013,340.624c.005-12.092,16.719-17.6,26.336-19.043-9.656,0-25.887.945-33.183,8.243l0,0h0v0c-7.3-7.3-23.528-8.243-33.185-8.243,9.615,1.445,26.333,6.951,26.335,19.043h13.7" fill="#08557b"/>
    <text id="K칩rh치z" transform="translate(228.975 343.439)" fill="#08557b" font-size="26" font-family="SegoeUI-Bold, Segoe UI" font-weight="700"><tspan x="0" y="0">K칩rh치z</tspan></text>
  </g>
</svg>
