<svg xmlns="http://www.w3.org/2000/svg" width="19.931" height="19.931" viewBox="0 0 19.931 19.931">
  <path id="Path_205" data-name="Path 205" d="M10.241,12.6l1.891-1.733a.579.579,0,0,1,.473-.158l.315.158,4.412,2.048c.315.158.315.315.315.63a3.994,3.994,0,0,1-1.26,2.836,4.513,4.513,0,0,1-3.309,1.26,9.6,9.6,0,0,1-4.412-1.1,20.654,20.654,0,0,1-4.412-3.151A26.836,26.836,0,0,1,1.891,9.926,21.778,21.778,0,0,1,.315,6.46,9.7,9.7,0,0,1,0,3.466,4.14,4.14,0,0,1,1.1,1.1,4.791,4.791,0,0,1,4.1,0a.819.819,0,0,1,.63.315L7.09,4.727a.55.55,0,0,0,.158.315.579.579,0,0,1-.158.473L5.042,7.405a.7.7,0,0,0,0,.788,15.046,15.046,0,0,0,1.891,2.521,15.908,15.908,0,0,0,2.521,2.048C9.769,12.92,10.084,12.92,10.241,12.6Z" transform="translate(2.456) rotate(8)" fill="#08557b"/>
</svg>
