<svg xmlns="http://www.w3.org/2000/svg" width="17.338" height="26.156" viewBox="0 0 17.338 26.156">
  <g id="Group_71" data-name="Group 71" transform="translate(-795.264 -536.595)">
    <path id="Path_169" data-name="Path 169" d="M803.918,562.751c-.97-1.516-1.922-2.951-2.819-4.419a65.393,65.393,0,0,1-5.238-10.1,8.545,8.545,0,0,1,6.863-11.555,8.66,8.66,0,0,1,9.817,7.423,9.813,9.813,0,0,1-.93,5.078,70.9,70.9,0,0,1-6.015,11.01C805.069,561.021,804.515,561.84,803.918,562.751Zm6.411-17.476a6.4,6.4,0,1,0-6.387,6.42A6.417,6.417,0,0,0,810.329,545.275Z" transform="translate(0)" fill="#08557b"/>
    <path id="Path_170" data-name="Path 170" d="M828.46,574.534a4.4,4.4,0,1,1,4.418-4.405A4.395,4.395,0,0,1,828.46,574.534Z" transform="translate(-24.53 -24.861)" fill="#08557b"/>
  </g>
</svg>
