<svg xmlns="http://www.w3.org/2000/svg" width="28.196" height="20.327" viewBox="0 0 28.196 20.327">
  <g id="Group_72" data-name="Group 72" transform="translate(113.607 300.2)">
    <path id="Path_209" data-name="Path 209" d="M-98.472-281.63c-.284,0-.522.006-.76,0a.43.43,0,0,1-.47-.432.44.44,0,0,1,.464-.443c.04,0,.08,0,.12,0,.9,0,.9,0,1.037-.983h-1.155c-.14,0-.28.009-.419,0a.45.45,0,0,1-.43-.452.437.437,0,0,1,.459-.417c.5-.007,1-.009,1.5,0,.191,0,.293-.042.318-.252.03-.254.1-.5.158-.817h-.506c-.589,0-1.177.008-1.766,0-.363-.006-.562-.249-.473-.558a.415.415,0,0,1,.458-.3q1.048,0,2.1,0c.318,0,.449-.173.27-.418a3.13,3.13,0,0,1-.271-2.755,16.47,16.47,0,0,1,2.381-5.188c.206-.318.427-.626.617-.953a1.686,1.686,0,0,0,.185-.533.734.734,0,0,0-.319-.774,7.223,7.223,0,0,0-8.981-.015.733.733,0,0,0-.3.961,4.1,4.1,0,0,0,.471.893,17.6,17.6,0,0,1,2.449,4.833,12.717,12.717,0,0,1,.388,2.016,2.051,2.051,0,0,1-.379,1.414.682.682,0,0,0-.092.448c.177,1.039.362,2.078.568,3.112.191.955.411,1.9.626,2.893l-.846.187c-.124-.566-.249-1.1-.36-1.647q-.423-2.077-.833-4.157A1.69,1.69,0,0,1-102-287.42a1.583,1.583,0,0,0,.136-1.246,11.565,11.565,0,0,0-1.453-3.961c-.382-.687-.843-1.33-1.234-2.012-.23-.4-.389-.844-.591-1.263a.39.39,0,0,0-.206-.206,6.4,6.4,0,0,1-2.787-1.559,11.974,11.974,0,0,0-1.365-1.061,2.134,2.134,0,0,0-1.571-.35,1.913,1.913,0,0,0-1.415,2.213,3.038,3.038,0,0,0,1.721,2.232c.061.033.127.058.187.094a.506.506,0,0,0,.714-.074,2.2,2.2,0,0,1,3.539,1.2,1.274,1.274,0,0,1-.439,1.265,2.09,2.09,0,0,1-2.125.428,2.041,2.041,0,0,1-1.454-1.565.415.415,0,0,0-.294-.326,4.088,4.088,0,0,1-2.477-2.4,3.1,3.1,0,0,1-.044-2.307,2.522,2.522,0,0,1,3.309-1.445,4.9,4.9,0,0,1,1.971,1.148,6.766,6.766,0,0,0,1.958,1.4c.119.05.238.1.36.146a.551.551,0,0,0,.7-.181,6.506,6.506,0,0,1,1.563-1.129,8.041,8.041,0,0,1,8.992.9.864.864,0,0,1,.26.283c.1.234.246.23.455.167a5.787,5.787,0,0,0,2.3-1.458,5.256,5.256,0,0,1,2.1-1.276,2.524,2.524,0,0,1,3.306,1.4,3.047,3.047,0,0,1-.022,2.334,4.015,4.015,0,0,1-2.386,2.371.622.622,0,0,0-.413.47,2.035,2.035,0,0,1-1.529,1.494,2.06,2.06,0,0,1-2.121-.553,1.334,1.334,0,0,1-.229-1.555,2.223,2.223,0,0,1,3.555-.714c.064.062.2.13.263.1a3.311,3.311,0,0,0,2.12-2,2.058,2.058,0,0,0-.064-1.656,1.7,1.7,0,0,0-2.17-.936,4.13,4.13,0,0,0-1.558.918c-.4.355-.808.712-1.234,1.041a5.182,5.182,0,0,1-1.9.913c-.1.025-.234.109-.253.189a5.02,5.02,0,0,1-.844,1.67,15.87,15.87,0,0,0-2.124,4.231,13.5,13.5,0,0,0-.364,1.75,1.254,1.254,0,0,0,.261,1.012,1.723,1.723,0,0,1,.167,1.5c-.36,1.806-.746,3.606-1.118,5.409-.035.169-.111.2-.273.166-.624-.131-.625-.126-.492-.759C-98.565-281.173-98.524-281.377-98.472-281.63Zm-10.078-12.716-.029.073a.846.846,0,0,0-.912.574.785.785,0,0,0,.462.964,3.093,3.093,0,0,0,1.052.272.761.761,0,0,0,.791-.565.765.765,0,0,0-.36-.9A7.872,7.872,0,0,0-108.55-294.345Zm18.018.075a1.661,1.661,0,0,0-1.067.438.771.771,0,0,0,.335,1.339,1.649,1.649,0,0,0,1.236-.208.85.85,0,0,0,.5-.982C-89.626-294.067-89.966-294.283-90.532-294.271Z" fill="#565656" stroke="#565656" stroke-width="0.5"/>
    <path id="Path_210" data-name="Path 210" d="M77.349-246.547a5.778,5.778,0,0,1,2.638.516.418.418,0,0,1,.216.641,31.185,31.185,0,0,0-2.037,4.543c-.029.074-.042.17-.1.215-.128.106-.274.254-.417.258a.524.524,0,0,1-.379-.26c-.159-.307-.248-.65-.392-.966q-.851-1.873-1.721-3.737c-.158-.337-.1-.573.255-.717a7.428,7.428,0,0,1,.988-.332C76.74-246.472,77.089-246.505,77.349-246.547Zm1.818,1.128a4.425,4.425,0,0,0-2.993,0l1.5,3.356Z" transform="translate(-177.16 -50.183)" fill="#565656" stroke="#565656" stroke-width="0.5"/>
  </g>
</svg>
