<svg xmlns="http://www.w3.org/2000/svg" width="22.679" height="24.21" viewBox="0 0 22.679 24.21">
  <g id="Group_73" data-name="Group 73" transform="translate(662.606 244.048)">
    <path id="Path_211" data-name="Path 211" d="M-657.753-220.508l1.431-1.75q2.736-3.347,5.464-6.7a1.653,1.653,0,0,0,.3-.706,3.208,3.208,0,0,0-.218-1.716c-.109.13-.2.242-.3.356q-4.442,5.435-8.885,10.869a.314.314,0,0,1-.184.115c-.8.072-1.608.136-2.412.2-.009,0-.02-.007-.052-.02.126-.158.248-.312.371-.464l6.29-7.76,9.1-11.226q1.7-2.1,3.4-4.2a1.291,1.291,0,0,1,.97-.534.888.888,0,0,1,.617.2c.534.431,1.07.859,1.6,1.3a1.043,1.043,0,0,1,.224,1.22,1.8,1.8,0,0,1-.245.392q-3.142,3.883-6.288,7.762c-.289.357-.582.71-.866,1.071a.448.448,0,0,0-.088.238,12.625,12.625,0,0,1-.971,4.365,10.985,10.985,0,0,1-4.46,5.036,16.909,16.909,0,0,1-4.7,1.945C-657.671-220.518-657.693-220.517-657.753-220.508Zm10.236-13.264,6.476-7.986-1.434-1.16c-.055.063-.1.112-.141.163q-2.575,3.178-5.147,6.359a.378.378,0,0,0-.062.252c.025.247.076.491.108.737C-647.649-234.87-647.586-234.333-647.518-233.772Z" fill="#565656"/>
  </g>
</svg>
