<svg xmlns="http://www.w3.org/2000/svg" width="20.474" height="20.456" viewBox="0 0 20.474 20.456">
  <g id="Group_83" data-name="Group 83" transform="translate(-1215.205 -502.088)">
    <path id="Path_228" data-name="Path 228" d="M1360.216,509.1c-.094.472-.167.949-.285,1.414a4.989,4.989,0,0,1-1.294,2.413,3.6,3.6,0,0,1-4.247.559,1.95,1.95,0,0,1-.762-2.842c.156-.274.33-.538.534-.868.21.2.412.4.611.591a6.594,6.594,0,0,0,.516.511,1.113,1.113,0,0,0,1.6-.064,1.236,1.236,0,0,0,.094-1.621c-.053-.073-.114-.14-.172-.211.786-.451,1.058-.875.947-1.47s-.506-.888-1.354-1.031c.047-.145.1-.285.137-.428a1.224,1.224,0,0,0-.694-1.465,1.207,1.207,0,0,0-1.55.573c-.117.228-.194.476-.3.711-.1.22-.208.434-.313.652a2.2,2.2,0,0,1-1.37-2.249,2.778,2.778,0,0,1,2.276-2.086c.147-.029.292-.069.437-.1h.911c.186.05.372.1.558.148a4.454,4.454,0,0,1,3.156,3.092,21.324,21.324,0,0,1,.568,2.407Z" transform="translate(-124.538)" fill="#565656"/>
    <path id="Path_229" data-name="Path 229" d="M1220.375,502.088c.248.063.5.117.744.189a2.815,2.815,0,0,1,1.63,1.163,1.946,1.946,0,0,1-.354,2.628c-.191.171-.4.317-.658.514-.167-.376-.335-.727-.482-1.086-.342-.832-.965-1.187-1.657-.922a1.244,1.244,0,0,0-.647,1.741.812.812,0,0,1,.038.172c-.848.145-1.233.443-1.34,1.027-.113.615.158,1.038.939,1.466-.515.678-.561,1.273-.135,1.767a1.133,1.133,0,0,0,1.791.015c.334-.318.609-.7.95-1.094.3.519.532.871.706,1.253a1.882,1.882,0,0,1-.684,2.438,3.592,3.592,0,0,1-5.063-1.194,7.369,7.369,0,0,1-.927-4.377,7.6,7.6,0,0,1,.876-3.265,4.23,4.23,0,0,1,3.2-2.358.614.614,0,0,0,.16-.075Z" fill="#565656"/>
    <path id="Path_230" data-name="Path 230" d="M1280.1,654.47h-1.194v-1.014a5.675,5.675,0,0,1-3.46-2.09c-1.179-1.5-.89-2.717.88-3.431a8.339,8.339,0,0,1,6.339-.02c1.82.714,2.113,1.962.89,3.487a5.241,5.241,0,0,1-2.91,1.908c-.43.1-.589.277-.528.7A2.547,2.547,0,0,1,1280.1,654.47Zm-.575-3.349a8.923,8.923,0,0,1,1.316.012,1.588,1.588,0,0,0,1.616-.843c.33-.464.3-.613-.214-.865a5.827,5.827,0,0,0-2.512-.525,6.005,6.005,0,0,0-3.04.588c-.137.074-.308.245-.313.377-.016.424.893,1.252,1.33,1.255C1278.316,651.123,1278.922,651.12,1279.528,651.121Z" transform="translate(-54.088 -131.926)" fill="#565656"/>
    <path id="Path_231" data-name="Path 231" d="M1255.632,545.015l-1.075.123c0-.9.017-1.782-.007-2.659a9.6,9.6,0,0,0-.152-1.533,1.715,1.715,0,0,0-2.98-.857q-.359.381-.716.763a.536.536,0,0,1-.8.087.505.505,0,0,1-.011-.8c.3-.336.606-.666.96-1.053l-1.152-.214c-.354-.065-.556-.277-.49-.635a.525.525,0,0,1,.685-.427c.356.06.711.122,1.142.2-.213-.5-.392-.941-.583-1.375a.548.548,0,0,1,.237-.808c.31-.159.59,0,.766.412.137.32.273.641.42.957a2.289,2.289,0,0,0,1.588,1.373,7.24,7.24,0,0,1,1.1.474c0-.3,0-.6,0-.89,0-.5-.011-1,.007-1.5a.518.518,0,0,1,.579-.56c.331.022.494.244.493.592-.006,1.623,0,3.247,0,4.87q0,1.479,0,2.959Z" transform="translate(-30.876 -30.596)" fill="#565656"/>
    <path id="Path_232" data-name="Path 232" d="M1335.369,539.044a11.37,11.37,0,0,0,1.515-.6,3.048,3.048,0,0,0,.956-.858,7.445,7.445,0,0,0,.63-1.3c.182-.408.444-.562.764-.429.3.127.4.443.23.847s-.354.832-.572,1.339c.386-.064.717-.111,1.044-.175.372-.072.676-.011.789.4.09.328-.13.573-.567.658-.34.066-.681.129-1.081.2.322.35.62.664.905.989.3.345.323.654.046.867-.337.26-.612.12-.869-.159a9.059,9.059,0,0,0-.863-.871,1.636,1.636,0,0,0-2.642.693,5.424,5.424,0,0,0-.271,1.6c-.042.967-.012,1.937-.012,2.932l-1.078-.121v-1.319c0-2.3.005-4.609,0-6.914,0-.39.109-.664.526-.7.328-.029.547.253.551.69C1335.374,537.55,1335.369,538.292,1335.369,539.044Z" transform="translate(-108.189 -30.632)" fill="#565656"/>
  </g>
</svg>
