<svg xmlns="http://www.w3.org/2000/svg" width="21" height="24.193" viewBox="0 0 21 24.193">
  <g id="Group_80" data-name="Group 80" transform="translate(-1187.749 -1678.906)">
    <path id="Path_221" data-name="Path 221" d="M1187.749,1703.1a11.447,11.447,0,0,0,1.948-1.159c2.414-2.161,3.064-4.4,1.863-7.112q-.953-2.152-1.926-4.3c-2.544-5.569,2.436-11.579,7.647-11.625a13.268,13.268,0,0,1,7.955,2.2,6.584,6.584,0,0,1,2.506,7.743,4.16,4.16,0,0,0,.053,2.055,19.162,19.162,0,0,0,.823,2.329c.269.748.144,1.026-.631,1.116-.582.067-.9.231-.965.881s-.47.872-1.084.663a31,31,0,0,1-3.143-1.205c-.7-.328-.87-.818-.663-1.3a1.481,1.481,0,0,1,1.522-.744c.83.238,1.634.564,2.457.828a6.105,6.105,0,0,0,1.285.307c.53.049.742-.271.459-.714a7.192,7.192,0,0,0-3.483-2.868,1.322,1.322,0,0,0-1,.226,8.527,8.527,0,0,0-1.126,1,2.393,2.393,0,0,1-2.4.6,12.62,12.62,0,0,1-1.922-.694,2.9,2.9,0,0,1-1.539-1.7,5.3,5.3,0,0,0-.521-1.085,1.517,1.517,0,0,0-2.655.165c-.866,1.717.4,4.892,2.224,5.52a1.109,1.109,0,0,0,.892-.1c.156-.116.147-.531.115-.8-.048-.4-.41-.841.08-1.146.46-.287.907-.025,1.271.275a2.231,2.231,0,0,1,.848,2.944c-1.108,2.545-2.1,5.139-3.144,7.713Z" transform="translate(0 0)" fill="#565656"/>
    <path id="Path_222" data-name="Path 222" d="M1282.146,1824.288a14.881,14.881,0,0,1,1.051-6.258c.436-1.1.6-1.253,1.745-1.119,1.293.152,2.575.423,3.852.688.5.1.62.559.224.828a1.448,1.448,0,0,0-.58,1.364c-.013,1.123-.2,1.365-1.32,1.209-1.176-.163-2.327-.511-3.486-.778a6.156,6.156,0,0,0,3.327,3.685c.29.13.583.254.874.38Z" transform="translate(-82.903 -121.189)" fill="#565656"/>
  </g>
</svg>
