<svg xmlns="http://www.w3.org/2000/svg" width="24.756" height="21.887" viewBox="0 0 24.756 21.887">
  <g id="Group_84" data-name="Group 84" transform="translate(-1418.877 -594.983)">
    <path id="Path_233" data-name="Path 233" d="M1418.877,616.87V604.506h5.694v-9.523h13.36v9.505h5.7V616.87Zm18.082-.947V595.941h-11.4v19.982Zm-17.121-10.459v10.449h4.732V605.464Zm18.117,0v10.449h4.73V605.463Z" fill="#565656"/>
    <path id="Path_234" data-name="Path 234" d="M1580.565,644.734v-1.9h1.89v1.884h1.9v1.9h-1.885v1.9h-1.9v-1.884h-1.9v-1.9Z" transform="translate(-150.255 -44.991)" fill="#565656"/>
    <path id="Path_235" data-name="Path 235" d="M1578.633,771.508v-.918h5.683v.918Z" transform="translate(-150.22 -165.125)" fill="#565656"/>
    <path id="Path_236" data-name="Path 236" d="M1584.485,818.592v.918H1578.8v-.918Z" transform="translate(-150.379 -210.262)" fill="#565656"/>
    <path id="Path_237" data-name="Path 237" d="M1584.431,866.579v.907h-5.694v-.907Z" transform="translate(-150.318 -255.385)" fill="#565656"/>
    <path id="Path_238" data-name="Path 238" d="M1450.984,786.5h2.821v.928h-2.821Z" transform="translate(-30.191 -180.088)" fill="#565656"/>
    <path id="Path_239" data-name="Path 239" d="M1450.933,818.5h2.827v.917h-2.827Z" transform="translate(-30.143 -210.175)" fill="#565656"/>
    <path id="Path_240" data-name="Path 240" d="M1453.837,850.545v.917h-2.823v-.917Z" transform="translate(-30.219 -240.308)" fill="#565656"/>
    <path id="Path_241" data-name="Path 241" d="M1450.831,883.315V882.4h2.823v.917Z" transform="translate(-30.047 -270.259)" fill="#565656"/>
    <path id="Path_242" data-name="Path 242" d="M1754.349,787.48v-.918h2.823v.918Z" transform="translate(-315.448 -180.144)" fill="#565656"/>
    <path id="Path_243" data-name="Path 243" d="M1757.309,818.553v.912h-2.834v-.912Z" transform="translate(-315.566 -210.225)" fill="#565656"/>
    <path id="Path_244" data-name="Path 244" d="M1757.345,850.54v.917h-2.823v-.917Z" transform="translate(-315.611 -240.303)" fill="#565656"/>
    <path id="Path_245" data-name="Path 245" d="M1754.342,883.314V882.4h2.823v.917Z" transform="translate(-315.441 -270.258)" fill="#565656"/>
  </g>
</svg>
