<svg xmlns="http://www.w3.org/2000/svg" width="17.576" height="24.181" viewBox="0 0 17.576 24.181">
  <g id="Group_81" data-name="Group 81" transform="translate(-1566.637 -1602.984)">
    <path id="Path_223" data-name="Path 223" d="M1593.814,1625.71l2.338-2.313,5.815,5.683-.129.134a5.363,5.363,0,0,1,1.047-.117,1.75,1.75,0,0,1,1.613,1.689,1.825,1.825,0,0,1-1.421,1.871,1.791,1.791,0,0,0-.759.431,2.21,2.21,0,0,1-2.593.456,2.161,2.161,0,0,1-1.166-2.294,1.691,1.691,0,0,0-.517-1.63q-1.854-1.757-3.727-3.494C1594.154,1625.975,1593.974,1625.842,1593.814,1625.71Z" transform="translate(-23.498 -17.65)" fill="#565656"/>
    <path id="Path_224" data-name="Path 224" d="M1637.96,1706.746c.2,2.448.4,4.784.594,7.168h-2.517c-.17-1.135-.339-2.281-.513-3.425-.057-.376-.138-.749-.194-1.125-.123-.819-.251-1.485-1.336-1.7a1.944,1.944,0,0,1-1.151-2.638,2.134,2.134,0,0,1,2.653-1.234,1.015,1.015,0,0,0,.755-.032,1.777,1.777,0,0,1,2.593.387,1.733,1.733,0,0,1-.715,2.513C1638.054,1706.7,1637.976,1706.738,1637.96,1706.746Z" transform="translate(-57.12 -86.798)" fill="#565656"/>
    <path id="Path_225" data-name="Path 225" d="M1625.617,1603.639l.751-.655c.018,0,.071,0,.1.019a28.161,28.161,0,0,1,7,7.995,10.643,10.643,0,0,1,1.141,4.589c.214,3.737.405,7.476.6,11.214a2.643,2.643,0,0,1-.024.306h-.99c-.019-.224-.044-.461-.058-.7-.236-3.983-.46-7.966-.712-11.947a8.712,8.712,0,0,0-1.661-4.271,30.94,30.94,0,0,0-5.586-6.068C1626.009,1603.977,1625.841,1603.833,1625.617,1603.639Z" transform="translate(-50.996)" fill="#565656"/>
    <path id="Path_226" data-name="Path 226" d="M1575.275,1678.193c-1.062.157-1.072.16-1.365-.82a24.186,24.186,0,0,1-.812-10.438c.053-.374-.078-.492-.367-.654-1.914-1.073-3.815-2.169-5.718-3.261a4.651,4.651,0,0,1-.375-.276l.726-.653,6.955,3.881A23.327,23.327,0,0,0,1575.275,1678.193Z" transform="translate(0 -51.106)" fill="#565656"/>
  </g>
</svg>
