<svg xmlns="http://www.w3.org/2000/svg" width="22.474" height="27.915" viewBox="0 0 22.474 27.915">
  <g id="Group_10" data-name="Group 10" transform="translate(1098.27 5779.977)">
    <path id="Path_39" data-name="Path 39" d="M-1095.049-5755.33c-.224-.7-.457-1.435-.695-2.169a.368.368,0,0,0-.1-.167,5.416,5.416,0,0,1-1.59-2.62,18.238,18.238,0,0,1-.831-6.27,17.4,17.4,0,0,1,.826-5.2,5.533,5.533,0,0,1,1.256-2.3,2.326,2.326,0,0,0,.61-1.105c.155-.546.363-1.077.507-1.5-.386-.437-.74-.849-1.105-1.247a1.324,1.324,0,0,1-.2-1.534.989.989,0,0,1,1.6-.251c1.353,1.2,2.676,2.442,4.081,3.582a74.056,74.056,0,0,0,11.308,7.456q1.376.749,2.786,1.435a1.239,1.239,0,0,1,.8,1.226,1.216,1.216,0,0,1-.856,1.151,54.1,54.1,0,0,0-8.349,4.55,60.9,60.9,0,0,0-9.761,7.9.931.931,0,0,1-1.008.265,1.065,1.065,0,0,1-.735-.894,1.265,1.265,0,0,1,.362-1.171C-1095.768-5754.557-1095.409-5754.95-1095.049-5755.33Zm1.688-1.466a64.788,64.788,0,0,1,13.8-9.287,79.81,79.81,0,0,1-13.792-9.234c-.116.363-.223.674-.311.988a.29.29,0,0,0,.042.233,6.913,6.913,0,0,1,1.461,2.966,20.055,20.055,0,0,1,.1,9.853,7.3,7.3,0,0,1-1.561,3.329.222.222,0,0,0-.042.178C-1093.573-5757.457-1093.471-5757.146-1093.361-5756.8Zm-3.8-12.727c.011.129.021.322.047.513a1.437,1.437,0,0,0,.085.336c.14.355.375.413.63.135a2.348,2.348,0,0,0,.364-.553,5.038,5.038,0,0,0,.494-2.013,4.282,4.282,0,0,0-.132-1.2c-.087-.343-.342-.386-.585-.129a2.174,2.174,0,0,0-.371.547A5.8,5.8,0,0,0-1097.16-5769.522Z" transform="translate(0)" fill="#565656"/>
  </g>
</svg>
