<svg xmlns="http://www.w3.org/2000/svg" width="21.097" height="27.051" viewBox="0 0 21.097 27.051">
  <g id="Group_82" data-name="Group 82" transform="translate(-1080.941 -1074.103)">
    <path id="Path_227" data-name="Path 227" d="M1092.485,1074.353a2.47,2.47,0,0,1,1.141.673,2,2,0,0,1,.535,1.317c0,.539,0,1.078,0,1.565a10.807,10.807,0,0,1,.545-1.056,1.786,1.786,0,0,1,1.524-.827,2.318,2.318,0,0,1,1.719.56,1.779,1.779,0,0,1,.533,1.027,6.728,6.728,0,0,1-.1,2.2c-.031.231-.037.465-.049.621a5.958,5.958,0,0,1,.843-.891,1.751,1.751,0,0,1,2.319.537,3.024,3.024,0,0,1,.27,1.891c-.055.683-.2,1.36-.308,2.038-.12.748-.256,1.494-.361,2.244a18.094,18.094,0,0,0-.223,2.03c-.035,1.348.015,2.7-.017,4.046a12.268,12.268,0,0,1-.636,4.148,10.462,10.462,0,0,1-1.427,2.522,3.149,3.149,0,0,0-.75,1.461.576.576,0,0,1-.608.439.588.588,0,0,1-.516-.578,2.112,2.112,0,0,1,.375-1.221c.381-.582.8-1.142,1.177-1.724a7.184,7.184,0,0,0,1.039-2.8,37.188,37.188,0,0,0,.153-5.632,16,16,0,0,1,.27-2.67c.16-.876.257-1.763.391-2.644.1-.644.232-1.284.307-1.931a2.893,2.893,0,0,0-.073-.868.471.471,0,0,0-.542-.358.668.668,0,0,0-.451.344,16.522,16.522,0,0,0-.641,1.754c-.327,1.093-.62,2.2-.926,3.3q-.248.888-.494,1.776a.641.641,0,0,1-.716.516.679.679,0,0,1-.466-.812c.086-.558.144-1.121.216-1.682.067-.526.14-1.051.2-1.577.044-.36.077-.722.12-1.083.068-.579.145-1.158.21-1.737.061-.546.119-1.092.166-1.64.045-.531.089-1.064.106-1.6a.9.9,0,0,0-1.105-.86,1.334,1.334,0,0,0-.94,1.243c-.139.88-.26,1.763-.378,2.646-.1.745-.177,1.492-.277,2.237-.1.725-.215,1.448-.317,2.173-.047.333-.08.668-.113,1a.6.6,0,1,1-1.189-.011c0-.063,0-.126,0-.189q0-4.842,0-9.684a.982.982,0,0,0-.406-.893,1.113,1.113,0,0,0-1.274-.036,1.081,1.081,0,0,0-.426.845.688.688,0,0,0,0,.081c-.018,3.278-.04,6.557-.048,9.835a.6.6,0,0,1-.532.664c-.288.041-.534-.164-.61-.525q-.411-1.961-.812-3.925c-.233-1.137-.457-2.276-.7-3.411a11.113,11.113,0,0,0-.387-1.5.836.836,0,0,0-1.027-.556,1.025,1.025,0,0,0-.853,1.01c.027.512.1,1.022.166,1.53.075.541.173,1.078.259,1.618.108.679.219,1.357.32,2.037.08.542.143,1.086.223,1.627.12.82.257,1.638.369,2.459.089.657.155,1.318.222,1.979a1.152,1.152,0,0,1-.007.51.762.762,0,0,1-.352.411.467.467,0,0,1-.582-.13c-.4-.52-.811-1.028-1.21-1.546-.312-.405-.608-.823-.921-1.227a1.366,1.366,0,0,0-1.3-.449,1.084,1.084,0,0,0-.669,1.5c.534,1.054,1.1,2.094,1.669,3.128.525.947,1.052,1.9,1.634,2.809a19.65,19.65,0,0,0,1.424,1.909,18.905,18.905,0,0,1,2.248,2.855,1.719,1.719,0,0,1,.29,1.3.561.561,0,0,1-1.065.018,5.122,5.122,0,0,0-1.51-2.413,20.965,20.965,0,0,1-2.785-3.672c-.413-.728-.842-1.446-1.244-2.179-.572-1.044-1.156-2.083-1.681-3.151a2.243,2.243,0,0,1,1.187-3.159,2.181,2.181,0,0,1,2.305.412,13.422,13.422,0,0,1,1.166,1.293c-.02-.184-.032-.368-.059-.549-.141-.942-.289-1.883-.427-2.825-.115-.786-.212-1.575-.331-2.36-.115-.758-.25-1.512-.371-2.269-.061-.383-.136-.767-.162-1.153a2.254,2.254,0,0,1,1.644-2.42,2.076,2.076,0,0,1,2.553,1.281c.249.746.376,1.532.552,2.3.068.3.12.6.218.9v-.269c0-1.2-.015-2.41.006-3.614a2.409,2.409,0,0,1,.576-1.636,2.1,2.1,0,0,1,.985-.621.646.646,0,0,0,.109-.055Z" fill="#565656" stroke="#565656" stroke-width="0.5"/>
  </g>
</svg>
