<svg xmlns="http://www.w3.org/2000/svg" width="71" height="76" viewBox="0 0 71 76">
  <g id="Group_42" data-name="Group 42" transform="translate(-691.328 -1817.748)">
    <rect id="Rectangle_110" data-name="Rectangle 110" width="71" height="76" transform="translate(691.328 1817.748)" fill="#08557b"/>
    <path id="Path_195" data-name="Path 195" d="M744.416,1845.829c-1.448,2.422-2.879,4.855-4.349,7.263-2.471,4.045-4.968,8.074-7.452,12.112-1.089,1.771-2.262,2.052-4.069.969-1.481-.888-2.965-1.771-4.5-2.686-1.92,1.489-3.829,3-5.776,4.453a1.494,1.494,0,0,1-1.171.29c-.243-.086-.426-.672-.432-1.038q-.056-3.662,0-7.326a1.228,1.228,0,0,0-.686-1.253c-1.883-1.085-3.737-2.218-5.6-3.336a2.449,2.449,0,0,1-1.385-2.513,2.5,2.5,0,0,1,2.072-2.078q14.9-3.737,29.786-7.515c1.873-.473,2.754-.042,3.564,1.714Zm-21.871,13.444,7.595,4.56,10.944-17.795-28.592,7.2c1.917,1.153,3.656,2.218,5.421,3.236a1.153,1.153,0,0,0,.855-.026c3.539-1.348,7.068-2.719,10.6-4.079.27-.1.555-.169.833-.253l.175.269C727.9,1854.77,725.163,1856.875,722.545,1859.273Z" transform="translate(0 0)" fill="#fff"/>
  </g>
</svg>
