<svg xmlns="http://www.w3.org/2000/svg" width="71" height="76" viewBox="0 0 71 76">
  <g id="Group_45" data-name="Group 45" transform="translate(-174.438 -650.789)">
    <rect id="Rectangle_52" data-name="Rectangle 52" width="71" height="76" transform="translate(174.438 650.789)" fill="#08557b"/>
    <path id="Path_201" data-name="Path 201" d="M23.786,29.275l4.391-4.025a1.344,1.344,0,0,1,1.1-.366l.732.366,10.246,4.757c.732.366.732.732.732,1.464-.366,2.927-1.1,5.123-2.927,6.587a10.483,10.483,0,0,1-7.685,2.927,22.3,22.3,0,0,1-10.246-2.562A47.971,47.971,0,0,1,9.88,31.1c-1.83-2.562-4.025-5.123-5.489-8.051A50.581,50.581,0,0,1,.732,15,22.519,22.519,0,0,1,0,8.051,9.616,9.616,0,0,1,2.562,2.562C4.025,1.1,6.221.366,9.514,0a1.9,1.9,0,0,1,1.464.732l5.489,10.246a1.278,1.278,0,0,0,.366.732,1.344,1.344,0,0,1-.366,1.1L11.71,17.2a1.633,1.633,0,0,0,0,1.83c1.1,2.2,2.927,4.025,4.391,5.855a36.948,36.948,0,0,0,5.855,4.757C22.688,30.006,23.42,30.006,23.786,29.275Z" transform="translate(194.41 665.604) rotate(8)" fill="#fff"/>
  </g>
</svg>
