<svg xmlns="http://www.w3.org/2000/svg" width="18" height="23.611" viewBox="0 0 18 23.611">
  <g id="spine" transform="translate(-91)">
    <path id="Path_312" data-name="Path 312" d="M106.505,11.16A2.391,2.391,0,0,0,109,9.2a2.266,2.266,0,0,0-2.451-2.19h-.958a2.04,2.04,0,0,0-.487-.692,2.04,2.04,0,0,0,.487-.692h.918A2.391,2.391,0,0,0,109,3.666a2.266,2.266,0,0,0-2.451-2.19h-.952A2.489,2.489,0,0,0,103.273,0H96.728a2.489,2.489,0,0,0-2.321,1.476H93.5A2.391,2.391,0,0,0,91,3.436a2.266,2.266,0,0,0,2.451,2.19h.958a2.041,2.041,0,0,0,.487.692,2.041,2.041,0,0,0-.487.692H93.5A2.391,2.391,0,0,0,91,8.97a2.266,2.266,0,0,0,2.451,2.19h.958a2.041,2.041,0,0,0,.487.692,2.041,2.041,0,0,0-.487.692H93.5A2.391,2.391,0,0,0,91,14.5a2.266,2.266,0,0,0,2.451,2.19h.958a2.041,2.041,0,0,0,.487.692,2.041,2.041,0,0,0-.487.692H93.5A2.391,2.391,0,0,0,91,20.038a2.266,2.266,0,0,0,2.451,2.19h.958a2.468,2.468,0,0,0,2.314,1.383h6.545a2.468,2.468,0,0,0,2.314-1.383h.918A2.391,2.391,0,0,0,109,20.267a2.266,2.266,0,0,0-2.451-2.19h-.958a2.04,2.04,0,0,0-.487-.692,2.04,2.04,0,0,0,.487-.692h.918A2.391,2.391,0,0,0,109,14.733a2.266,2.266,0,0,0-2.451-2.19h-.958a2.04,2.04,0,0,0-.487-.692,2.04,2.04,0,0,0,.487-.692ZM93.477,4.243a.8.8,0,0,1-.835-.611.747.747,0,0,1,.813-.772h1.636a.759.759,0,0,0,.818-.685.843.843,0,0,1,.818-.791h6.545a.843.843,0,0,1,.818.791.759.759,0,0,0,.818.685h1.614a.8.8,0,0,1,.835.611.747.747,0,0,1-.813.772h-1.653a.747.747,0,0,0-.8.688.763.763,0,0,1-.818.7h-1.655a.746.746,0,0,0-.8.688.822.822,0,0,1-1.173.632.666.666,0,0,1-.463-.622.762.762,0,0,0-.818-.7H96.711a.747.747,0,0,1-.8-.686.762.762,0,0,0-.818-.7Zm0,5.534a.8.8,0,0,1-.835-.611.747.747,0,0,1,.813-.772h1.636a.769.769,0,0,0,.818-.7.766.766,0,0,1,.818-.681h.958a2.628,2.628,0,0,0,4.629,0h.958a.769.769,0,0,1,.818.7.765.765,0,0,0,.818.683h1.614a.8.8,0,0,1,.835.611.747.747,0,0,1-.813.772h-1.653a.747.747,0,0,0-.8.688.763.763,0,0,1-.818.7h-1.655a.746.746,0,0,0-.8.688.822.822,0,0,1-1.173.632.666.666,0,0,1-.463-.622.762.762,0,0,0-.818-.7H96.711a.747.747,0,0,1-.8-.686.762.762,0,0,0-.818-.7Zm13.047,9.684a.8.8,0,0,1,.835.611.747.747,0,0,1-.813.772h-1.636a.769.769,0,0,0-.818.7.766.766,0,0,1-.818.681H96.728a.769.769,0,0,1-.818-.7.765.765,0,0,0-.818-.683H93.477a.8.8,0,0,1-.835-.611.747.747,0,0,1,.813-.772h1.636a.769.769,0,0,0,.818-.7.766.766,0,0,1,.818-.681h.958a2.628,2.628,0,0,0,4.629,0h.958a.769.769,0,0,1,.818.7.765.765,0,0,0,.818.683Zm0-5.534a.8.8,0,0,1,.835.611.747.747,0,0,1-.813.772h-1.653a.747.747,0,0,0-.8.688.763.763,0,0,1-.818.7h-1.655a.746.746,0,0,0-.8.688.822.822,0,0,1-1.173.632.666.666,0,0,1-.463-.622.762.762,0,0,0-.818-.7H96.711a.747.747,0,0,1-.8-.686.762.762,0,0,0-.818-.7H93.477a.8.8,0,0,1-.835-.611.747.747,0,0,1,.813-.772h1.636a.769.769,0,0,0,.818-.7.766.766,0,0,1,.818-.681h.958a2.628,2.628,0,0,0,4.629,0h.958a.769.769,0,0,1,.818.7.765.765,0,0,0,.818.683Z" fill="#565656"/>
  </g>
</svg>
