<svg xmlns="http://www.w3.org/2000/svg" width="34" height="37" viewBox="0 0 34 37">
  <g id="Group_6" data-name="Group 6" transform="translate(355.307 690.409)">
    <rect id="Rectangle_92" data-name="Rectangle 92" width="34" height="37" transform="translate(-355.307 -690.409)" fill="#098ccd"/>
    <path id="Path_17" data-name="Path 17" d="M-348.5-664.992a9.08,9.08,0,0,0,6.512-1.846,4.466,4.466,0,0,1-2.569-.887,4.433,4.433,0,0,1-1.567-2.192,4.54,4.54,0,0,0,1.972-.081,4.453,4.453,0,0,1-2.55-1.573,4.331,4.331,0,0,1-.974-2.8c.324.123.628.264.946.353a5.684,5.684,0,0,0,.989.159,4.523,4.523,0,0,1-1.872-3.183,4.289,4.289,0,0,1,.569-2.712,12.689,12.689,0,0,0,9.126,4.628c-.028-.285-.062-.546-.078-.809a4.176,4.176,0,0,1,.762-2.71,4.3,4.3,0,0,1,3.411-1.92,4.25,4.25,0,0,1,3.268,1.187.479.479,0,0,0,.51.136,9.155,9.155,0,0,0,2.3-.893c.056-.031.115-.058.214-.109a4.591,4.591,0,0,1-1.844,2.4,9.438,9.438,0,0,0,2.4-.6c-.075.105-.149.212-.226.316s-.159.221-.246.325a8.9,8.9,0,0,1-1.564,1.485.3.3,0,0,0-.133.281,12.785,12.785,0,0,1-1.671,6.688,12.345,12.345,0,0,1-3.261,3.812,11.791,11.791,0,0,1-4.64,2.188,13.219,13.219,0,0,1-4.666.229,12.535,12.535,0,0,1-5.045-1.805C-348.437-664.934-348.449-664.947-348.5-664.992Z" fill="#fff"/>
  </g>
</svg>
