<svg xmlns="http://www.w3.org/2000/svg" width="420" height="56" viewBox="0 0 420 56"><g fill="#FFF"><path d="M151.851 52.884h17.694v-2.302h-3.797c-.138 0-.477-.068-.948-.204a4.977 4.977 0 0 1-1.562-.608c-.541-.547-.745-1.225-.745-2.513V7.601l15.254 45.284h5.019l15.455-45.352V48.139c0 .611-.271 1.221-.812 1.631-.408.338-1.426.676-2.373.812h-3.934v2.303h25.021v-2.303h-3.732c-2.237 0-3.526-1.288-3.526-3.325V9.77c0-1.492.14-1.965.885-2.44.404-.405 1.423-.746 2.509-.88h3.932V4.007H195.85l-11.863 34.575L172.46 4.007h-20.542v2.442h3.729c2.031 0 3.39 1.287 3.39 3.321v36.132l.067 1.354c0 1.966-1.491 3.325-3.523 3.325h-3.73v2.303zM217.097 6.245h3.865c.136 0 .543.135.947.272.609.135 1.153.339 1.492.609.542.474.744.948.744 1.762V39.867c0 5.561 1.488 8.744 5.02 10.714 3.185 1.965 8.336 3.116 13.286 3.116 5.624 0 11.186-1.627 13.965-3.93 1.425-1.289 2.576-3.121 3.117-5.355.543-1.833.815-4.137.815-6.576V9.634c0-2.033 1.423-3.389 3.593-3.389h3.795V4.007h-17.829v2.238h3.798c1.896 0 3.186 1.423 3.186 3.389v28.542c0 7.729-3.186 10.912-11.184 10.912-5.29 0-9.222-1.831-10.442-5.014-.405-1.021-.542-2.377-.542-5.288V9.634c0-1.965 1.357-3.389 3.459-3.389h3.726V4.007h-24.811v2.238zM268.703 52.884h17.968v-2.302h-3.864c-.068 0-.479-.068-1.016-.137-.614-.202-1.224-.406-1.63-.678-.608-.545-.814-1.086-.814-2.512v-33.35l24.881 38.979h7.525V8.821c0-1.017.812-1.83 2.305-2.237.408-.066.881-.204.95-.204h3.794V4.007h-17.488V6.38h3.728c2.102 0 3.455 1.356 3.455 3.39v30.235L285.448 4.007h-16.676v2.442h3.729c2.034 0 3.458 1.287 3.458 3.321v37.487c0 1.966-1.493 3.325-3.523 3.325h-3.731l-.002 2.302zM320.105 52.884h26.3c13.629 0 23.456-10.508 23.456-25.081 0-8.406-3.864-15.865-10.438-20.134-3.936-2.506-8.203-3.661-13.763-3.661h-25.557V6.38h3.796c2.035 0 3.389 1.289 3.389 3.39V47.257c0 1.288-.27 2.037-.881 2.578-.407.271-1.493.61-2.439.882h-3.865l.002 2.167zm17.693-5.288V9.092c0-2.304.543-2.914 2.645-2.914h6.236c3.457 0 6.778 1.694 8.541 4.405 1.22 1.967 2.102 4.609 2.646 8.476.338 2.71.539 6.711.539 9.625 0 15.119-3.931 22.102-12.472 22.102h-5.422c-2.035-.002-2.713-.747-2.713-3.19zM374.372 28.479c0 14.984 9.154 25.083 22.78 25.083 13.628 0 22.848-10.1 22.848-25.083 0-7.05-2.104-13.219-6.171-17.965-4.066-4.812-9.49-7.186-16.677-7.186s-12.406 2.307-16.746 7.186c-3.929 4.544-6.034 10.916-6.034 17.965zm12.682-14.167c1.352-5.355 4.811-8.134 10.1-8.134 5.288 0 8.677 2.779 10.169 8.134.946 3.457 1.221 7.118 1.221 14.168 0 6.982-.273 10.577-1.221 14.101-1.425 5.288-4.881 8.138-10.169 8.138-5.289 0-8.678-2.85-10.1-8.138-1.02-3.455-1.357-7.05-1.357-14.101-.001-7.118.337-10.642 1.357-14.168zM0 52.884h43.929l1.355-15.725h-2.577c-1.018 8.743-6.575 13.558-15.794 13.558h-6.779c-1.83 0-2.577-.882-2.577-2.849V27.396h3.527c3.592 0 6.778.813 8.203 2.102 1.421 1.354 2.438 3.863 2.438 6.169 0 .405 0 .883-.066 1.356h2.507V15.667l-2.507-.067v.542c0 5.898-3.73 9.086-10.575 9.086h-3.527V8.549c0-1.828.544-2.371 2.238-2.371h6.777c5.356 0 8.137.813 11.051 3.253 2.168 1.763 3.863 4.407 4.27 6.779.135.61.205 1.422.272 2.442h2.848L43.86 4.007H0V6.38h3.796c1.967 0 3.322 1.221 3.322 3.321V47.325c0 1.969-1.355 3.257-3.39 3.257H0v2.302zM46.002 6.38h3.729c2.101 0 3.456 1.289 3.456 3.39v37.419c0 1.354-.271 2.033-.814 2.578-.476.338-1.491.678-2.438.813h-3.933v2.302h41.962l1.017-19.252h-2.778c-1.627 10.85-6.848 17.085-14.575 17.085h-5.423c-1.833 0-2.646-.882-2.646-2.916V9.77c0-2.034 1.358-3.39 3.393-3.39h3.797V4.007H46.002V6.38zM146.37 40.062a27.772 27.772 0 0 0 2.762-10.896h-26.233v11.111h23.36c-.001 0-.011.03.111-.215zM119.957 14.419H96.793a27.775 27.775 0 0 0-3.405 11.814h26.568l.001-11.814zM122.898 14.419v11.814h26.216a27.863 27.863 0 0 0-3.398-11.814h-22.818zM119.957 29.166H93.372a27.825 27.825 0 0 0 2.866 11.111h23.72l-.001-11.111zM119.957 43.211H97.924c4.771 7.242 12.821 12.135 22.033 12.557V43.211zM122.898 11.484h20.946C139.067 4.92 131.506.518 122.898.016v11.468zM122.898 43.211v12.535c9.068-.529 16.971-5.383 21.68-12.535h-21.68zM119.957 11.484V0c-8.753.398-16.454 4.833-21.293 11.484h21.293z"/></g></svg>