<svg width="207" height="81" viewBox="0 0 207 81" fill="none" xmlns="http://www.w3.org/2000/svg">
<path fill-rule="evenodd" clip-rule="evenodd" d="M81 0H0V81H81V0ZM6.65625 22.6875V57H15.4219V43.5703L23.2969 57H33.8672L24.5156 43.1719C27.0156 42.625 28.9141 41.5234 30.2109 39.8672C31.5234 38.1953 32.1797 36.0312 32.1797 33.375C32.1797 31.625 31.8438 30.0234 31.1719 28.5703C30.5156 27.1172 29.5703 25.9219 28.3359 24.9844C27.2422 24.1562 25.9375 23.5703 24.4219 23.2266C22.9219 22.8672 20.2578 22.6875 16.4297 22.6875H6.65625ZM17.1562 38.9062H15.4219V29.8828H17.2969C19.3438 29.8828 20.7969 30.25 21.6562 30.9844C22.5312 31.7031 22.9688 32.9219 22.9688 34.6406C22.9688 36.1094 22.5 37.1875 21.5625 37.875C20.6406 38.5625 19.1719 38.9062 17.1562 38.9062ZM50.7976 40.7578C51.782 41.8359 52.2742 43.2969 52.2742 45.1406C52.2742 46.9844 51.782 48.4375 50.7976 49.5C49.8132 50.5625 48.4695 51.0938 46.7664 51.0938C45.0789 51.0938 43.7429 50.5625 42.7585 49.5C41.7742 48.4375 41.282 46.9844 41.282 45.1406C41.282 43.2812 41.7664 41.8203 42.7351 40.7578C43.7195 39.6797 45.0632 39.1406 46.7664 39.1406C48.4695 39.1406 49.8132 39.6797 50.7976 40.7578ZM59.6101 57V33.3281H51.8992V37.2188C50.9773 35.6406 49.8679 34.4766 48.571 33.7266C47.2898 32.9609 45.7585 32.5781 43.9773 32.5781C40.6335 32.5781 37.9695 33.7188 35.9851 36C34.0164 38.2656 33.032 41.3281 33.032 45.1875C33.032 49.0625 33.9773 52.1562 35.8679 54.4688C37.7585 56.7656 40.282 57.9141 43.4382 57.9141C45.282 57.9141 46.8835 57.5312 48.2429 56.7656C49.6179 56 50.8523 54.7969 51.946 53.1562V57H59.6101ZM64.4231 22.7109C63.5325 23.6016 63.0872 24.6797 63.0872 25.9453C63.0872 27.2109 63.5403 28.3047 64.4465 29.2266C65.3528 30.1484 66.4309 30.6094 67.6809 30.6094C68.9622 30.6094 70.0481 30.1562 70.9387 29.25C71.845 28.3438 72.2981 27.2422 72.2981 25.9453C72.2981 24.6484 71.8528 23.5625 70.9622 22.6875C70.0872 21.8125 68.9934 21.375 67.6809 21.375C66.4153 21.375 65.3293 21.8203 64.4231 22.7109ZM63.509 33.3281V57H71.8762V33.3281H63.509Z" fill="white"/>
<path d="M87.6562 57V22.6875H96.6797L109.641 40.3359C109.891 40.6953 110.297 41.4219 110.859 42.5156C111.438 43.5938 112.07 44.8828 112.758 46.3828C112.57 44.9609 112.43 43.6953 112.336 42.5859C112.258 41.4766 112.219 40.4922 112.219 39.6328V22.6875H121.195V57H112.219L99.2578 39.2812C98.9922 38.9219 98.5703 38.2031 97.9922 37.125C97.4297 36.0312 96.8125 34.75 96.1406 33.2812C96.3281 34.7188 96.4609 35.9922 96.5391 37.1016C96.6328 38.2109 96.6797 39.1953 96.6797 40.0547V57H87.6562Z" fill="white"/>
<path d="M141.665 42.1172C141.508 40.7734 140.993 39.6953 140.118 38.8828C139.258 38.0703 138.196 37.6641 136.93 37.6641C135.571 37.6641 134.485 38.0391 133.673 38.7891C132.876 39.5234 132.344 40.6328 132.079 42.1172H141.665ZM149.891 46.8281H131.891C131.907 48.6562 132.376 50.0703 133.298 51.0703C134.219 52.0547 135.524 52.5469 137.212 52.5469C138.477 52.5469 139.54 52.3125 140.399 51.8438C141.274 51.3594 141.938 50.6484 142.391 49.7109L148.673 52.2422C147.923 54.0547 146.594 55.4531 144.688 56.4375C142.782 57.4219 140.446 57.9141 137.68 57.9141C133.555 57.9141 130.243 56.7734 127.743 54.4922C125.258 52.1953 124.016 49.1719 124.016 45.4219C124.016 41.7344 125.258 38.6719 127.743 36.2344C130.243 33.7969 133.399 32.5781 137.212 32.5781C141.133 32.5781 144.227 33.8125 146.493 36.2812C148.758 38.75 149.891 42.1328 149.891 46.4297V46.8281Z" fill="white"/>
<path d="M170.783 33.3281L174.275 43.7812L174.345 43.9688C174.861 45.4375 175.189 46.6094 175.329 47.4844C175.423 46.9844 175.54 46.4609 175.681 45.9141C175.837 45.3672 176.056 44.6641 176.337 43.8047L179.9 33.3281H188.548L178.611 57H172.704L169.189 46.2891C169.001 45.6797 168.829 45.0703 168.673 44.4609C168.533 43.8359 168.4 43.2188 168.275 42.6094C168.103 43.5469 167.798 44.7266 167.361 46.1484L167.314 46.3125L163.822 57H157.915L148.025 33.3281H156.626L160.165 43.8047C160.431 44.5703 160.642 45.2422 160.798 45.8203C160.954 46.3828 161.079 46.9375 161.173 47.4844C161.314 46.7031 161.618 45.6172 162.087 44.2266C162.15 44.0391 162.197 43.8984 162.228 43.8047L165.743 33.3281H170.783Z" fill="white"/>
<path d="M185.791 55.0312L187.525 48.6562C188.744 49.7188 190.08 50.5391 191.533 51.1172C193.002 51.6797 194.478 51.9609 195.963 51.9609C197.01 51.9609 197.807 51.7969 198.353 51.4688C198.9 51.125 199.174 50.6328 199.174 49.9922C199.174 48.9453 198.072 48.1641 195.869 47.6484C195.15 47.4766 194.572 47.3281 194.135 47.2031C191.635 46.5156 189.814 45.6172 188.674 44.5078C187.549 43.3828 186.986 41.9297 186.986 40.1484C186.986 37.8516 187.846 36.0156 189.564 34.6406C191.299 33.2656 193.643 32.5781 196.596 32.5781C198.111 32.5781 199.65 32.7578 201.213 33.1172C202.791 33.4609 204.4 34 206.041 34.7344L204.307 40.4766C203.197 39.7266 202.072 39.1562 200.932 38.7656C199.791 38.375 198.65 38.1797 197.51 38.1797C196.557 38.1797 195.838 38.3281 195.353 38.625C194.869 38.9219 194.627 39.3516 194.627 39.9141C194.627 40.7578 195.721 41.4688 197.908 42.0469C198.408 42.1875 198.783 42.2891 199.033 42.3516C201.924 43.1797 203.932 44.1562 205.057 45.2812C206.197 46.3906 206.768 47.8984 206.768 49.8047C206.768 52.2266 205.838 54.1875 203.978 55.6875C202.119 57.1719 199.658 57.9141 196.596 57.9141C194.518 57.9141 192.588 57.6719 190.807 57.1875C189.025 56.7188 187.353 56 185.791 55.0312Z" fill="white"/>
</svg>
