<svg width="240" height="22" viewBox="0 0 240 22" fill="none" xmlns="http://www.w3.org/2000/svg">
<path d="M2.54 4.055C2.658 4.07 2.764 4.098 2.858 4.141C2.953 4.186 3.041 4.245 3.129 4.325C3.216 4.404 3.314 4.51 3.425 4.643L11.597 14.978C11.566 14.649 11.542 14.329 11.528 14.017C11.512 13.705 11.505 13.413 11.505 13.137V4.029H15.025V21.239H12.945C12.639 21.239 12.379 21.192 12.167 21.1C11.954 21 11.75 20.829 11.552 20.577L3.437 10.324C3.46 10.622 3.481 10.918 3.495 11.207C3.512 11.492 3.519 11.762 3.519 12.014V21.239H0V4.029H2.103C2.276 4.029 2.422 4.039 2.54 4.055ZM34.843 12.627C34.843 13.873 34.627 15.03 34.199 16.1C33.768 17.17 33.164 18.102 32.386 18.896C31.607 19.686 30.667 20.305 29.568 20.754C28.471 21.201 27.252 21.428 25.913 21.428C24.574 21.428 23.355 21.201 22.252 20.754C21.149 20.305 20.207 19.686 19.423 18.896C18.641 18.102 18.034 17.17 17.604 16.102C17.175 15.031 16.961 13.873 16.961 12.627C16.961 11.384 17.175 10.227 17.604 9.154C18.034 8.085 18.641 7.154 19.423 6.367C20.207 5.581 21.149 4.962 22.252 4.514C23.355 4.064 24.573 3.841 25.913 3.841C27.253 3.841 28.471 4.067 29.569 4.52C30.668 4.971 31.608 5.591 32.387 6.381C33.165 7.167 33.769 8.095 34.2 9.167C34.627 10.238 34.843 11.391 34.843 12.627ZM30.756 12.627C30.756 11.777 30.644 11.01 30.425 10.33C30.203 9.649 29.888 9.073 29.474 8.6C29.062 8.127 28.555 7.768 27.957 7.515C27.358 7.263 26.677 7.138 25.913 7.138C25.142 7.138 24.455 7.264 23.851 7.515C23.249 7.768 22.742 8.128 22.33 8.6C21.915 9.074 21.597 9.649 21.378 10.33C21.157 11.011 21.046 11.778 21.046 12.627C21.046 13.486 21.156 14.256 21.378 14.937C21.597 15.618 21.915 16.197 22.33 16.666C22.742 17.139 23.25 17.498 23.851 17.748C24.455 17.996 25.142 18.121 25.913 18.121C26.678 18.121 27.358 17.996 27.957 17.748C28.555 17.498 29.062 17.139 29.474 16.666C29.888 16.195 30.203 15.617 30.425 14.937C30.644 14.256 30.756 13.487 30.756 12.627ZM48.542 4.029V7.194H43.702V21.239H39.707V7.194H34.866V4.029H48.542ZM57.625 0L54.142 2.53C53.936 2.687 53.746 2.79 53.568 2.844C53.391 2.892 53.17 2.918 52.901 2.918H49.996L52.134 0.592C52.237 0.474 52.335 0.379 52.434 0.304C52.532 0.226 52.638 0.167 52.748 0.118C52.856 0.073 52.979 0.041 53.113 0.026C53.247 0.00999996 53.403 0 53.585 0H57.625ZM54.566 21.239H50.551V4.029H54.566V21.239ZM69.319 16.785C69.414 16.785 69.507 16.803 69.603 16.84C69.696 16.875 69.786 16.937 69.874 17.02L71.456 18.688C70.764 19.592 69.894 20.278 68.851 20.737C67.809 21.198 66.575 21.428 65.149 21.428C63.84 21.428 62.671 21.207 61.636 20.76C60.6 20.315 59.722 19.699 59.003 18.919C58.28 18.135 57.728 17.204 57.342 16.129C56.957 15.055 56.764 13.887 56.764 12.627C56.764 11.346 56.985 10.166 57.425 9.091C57.867 8.015 58.482 7.087 59.273 6.308C60.065 5.53 61.01 4.922 62.114 4.489C63.217 4.056 64.434 3.841 65.764 3.841C66.409 3.841 67.017 3.897 67.589 4.013C68.16 4.126 68.692 4.283 69.188 4.484C69.687 4.684 70.141 4.926 70.56 5.207C70.977 5.484 71.346 5.793 71.669 6.132L70.322 7.939C70.237 8.049 70.134 8.15 70.015 8.24C69.898 8.332 69.73 8.376 69.52 8.376C69.378 8.376 69.245 8.345 69.119 8.281C68.992 8.22 68.86 8.143 68.718 8.049C68.574 7.962 68.42 7.862 68.252 7.757C68.083 7.652 67.881 7.551 67.649 7.461C67.417 7.371 67.146 7.294 66.835 7.231C66.523 7.169 66.159 7.138 65.742 7.138C65.017 7.138 64.355 7.263 63.756 7.521C63.158 7.776 62.644 8.144 62.216 8.619C61.785 9.097 61.451 9.673 61.212 10.352C60.97 11.028 60.851 11.787 60.851 12.628C60.851 13.511 60.971 14.294 61.212 14.979C61.451 15.666 61.777 16.241 62.191 16.709C62.605 17.18 63.087 17.534 63.638 17.778C64.188 18.022 64.779 18.145 65.409 18.145C65.772 18.145 66.103 18.127 66.402 18.092C66.699 18.055 66.978 17.992 67.235 17.908C67.491 17.82 67.734 17.711 67.967 17.572C68.198 17.432 68.434 17.26 68.67 17.056C68.764 16.977 68.867 16.912 68.976 16.863C69.085 16.811 69.201 16.785 69.319 16.785ZM77.646 21.239H73.63V4.029H77.645V21.239H77.646ZM96.851 21.239H93.756C93.41 21.239 93.125 21.158 92.899 20.997C92.675 20.834 92.52 20.63 92.433 20.377L91.417 17.377H84.874L83.858 20.377C83.779 20.599 83.625 20.798 83.398 20.974C83.17 21.152 82.89 21.24 82.559 21.24H79.44L86.102 4.03H90.188L96.851 21.239ZM85.795 14.66H90.496L88.913 9.947C88.81 9.649 88.692 9.294 88.554 8.89C88.415 8.484 88.281 8.044 88.146 7.573C88.021 8.052 87.889 8.498 87.757 8.907C87.62 9.315 87.497 9.671 87.379 9.969L85.795 14.66ZM107.835 7.525C107.717 7.715 107.592 7.857 107.463 7.952C107.334 8.044 107.168 8.093 106.961 8.093C106.779 8.093 106.585 8.034 106.376 7.921C106.168 7.808 105.932 7.679 105.667 7.538C105.404 7.394 105.103 7.268 104.764 7.153C104.428 7.04 104.04 6.983 103.608 6.983C102.859 6.983 102.301 7.143 101.937 7.461C101.57 7.781 101.388 8.21 101.388 8.754C101.388 9.101 101.498 9.389 101.717 9.618C101.938 9.845 102.228 10.042 102.587 10.206C102.946 10.371 103.355 10.525 103.816 10.662C104.276 10.801 104.747 10.956 105.226 11.122C105.707 11.292 106.179 11.493 106.639 11.72C107.098 11.949 107.51 12.241 107.867 12.593C108.227 12.948 108.515 13.38 108.737 13.886C108.958 14.396 109.067 15.008 109.067 15.724C109.067 16.519 108.929 17.261 108.654 17.955C108.379 18.649 107.978 19.253 107.455 19.767C106.93 20.285 106.284 20.691 105.517 20.988C104.75 21.283 103.877 21.429 102.9 21.429C102.364 21.429 101.82 21.371 101.265 21.265C100.709 21.155 100.172 20.997 99.653 20.798C99.132 20.595 98.645 20.357 98.187 20.081C97.732 19.808 97.333 19.501 96.994 19.161L98.176 17.296C98.262 17.153 98.384 17.038 98.542 16.953C98.699 16.866 98.869 16.823 99.049 16.823C99.285 16.823 99.525 16.896 99.764 17.044C100.005 17.198 100.278 17.362 100.578 17.54C100.882 17.724 101.232 17.889 101.625 18.036C102.019 18.189 102.484 18.261 103.019 18.261C103.744 18.261 104.306 18.103 104.708 17.784C105.108 17.467 105.311 16.961 105.311 16.266C105.311 15.866 105.201 15.537 104.979 15.287C104.759 15.034 104.471 14.826 104.111 14.66C103.753 14.494 103.347 14.348 102.888 14.221C102.432 14.096 101.964 13.957 101.484 13.803C101.003 13.649 100.536 13.461 100.077 13.237C99.621 13.014 99.213 12.716 98.855 12.35C98.495 11.983 98.209 11.528 97.986 10.981C97.765 10.433 97.655 9.757 97.655 8.955C97.655 8.309 97.786 7.679 98.045 7.065C98.305 6.45 98.687 5.903 99.192 5.423C99.694 4.942 100.312 4.562 101.046 4.271C101.778 3.985 102.616 3.842 103.56 3.842C104.09 3.842 104.602 3.883 105.103 3.966C105.602 4.048 106.077 4.169 106.525 4.331C106.973 4.493 107.396 4.685 107.783 4.91C108.173 5.136 108.521 5.39 108.829 5.674L107.835 7.525Z" fill="white"/>
<path opacity="0.8" d="M124.689 21.239H123.755C123.646 21.239 123.556 21.21 123.484 21.151C123.414 21.091 123.359 21.014 123.32 20.92L121.347 16.066H113.139L111.178 20.92C111.147 21.007 111.091 21.081 111.013 21.146C110.933 21.208 110.838 21.24 110.727 21.24H109.807L116.645 4.52701H117.851L124.689 21.239ZM113.505 15.164H120.992L117.58 6.72301C117.524 6.58901 117.468 6.43801 117.413 6.26801C117.359 6.09801 117.304 5.91801 117.246 5.73101C117.193 5.91901 117.137 6.09801 117.084 6.26801C117.028 6.43701 116.972 6.59201 116.917 6.73301L113.505 15.164ZM141.887 12.877C141.887 14.168 141.694 15.34 141.309 16.389C140.922 17.441 140.379 18.338 139.678 19.084C138.979 19.829 138.137 20.402 137.162 20.805C136.185 21.211 135.101 21.417 133.914 21.417C132.74 21.417 131.666 21.211 130.689 20.805C129.712 20.403 128.875 19.829 128.173 19.084C127.474 18.338 126.927 17.44 126.536 16.389C126.147 15.34 125.952 14.168 125.952 12.877C125.952 11.592 126.147 10.428 126.536 9.37401C126.927 8.32201 127.474 7.42501 128.173 6.68201C128.874 5.93601 129.712 5.36101 130.689 4.95001C131.666 4.54101 132.74 4.33801 133.914 4.33801C135.102 4.33801 136.185 4.54101 137.162 4.94501C138.137 5.35101 138.978 5.92901 139.678 6.67501C140.379 7.42501 140.922 8.32201 141.309 9.37401C141.693 10.428 141.887 11.592 141.887 12.877ZM140.635 12.877C140.635 11.71 140.473 10.664 140.151 9.73601C139.827 8.80501 139.374 8.01801 138.786 7.37301C138.2 6.72701 137.493 6.23201 136.665 5.88901C135.841 5.54701 134.921 5.37501 133.915 5.37501C132.923 5.37501 132.017 5.54701 131.192 5.88901C130.37 6.23201 129.663 6.72701 129.065 7.37301C128.471 8.01801 128.012 8.80501 127.684 9.73601C127.358 10.663 127.194 11.71 127.194 12.877C127.194 14.05 127.358 15.098 127.684 16.023C128.012 16.949 128.471 17.734 129.065 18.377C129.663 19.024 130.37 19.517 131.192 19.856C132.016 20.195 132.922 20.366 133.915 20.366C134.921 20.366 135.841 20.195 136.665 19.856C137.493 19.517 138.2 19.025 138.786 18.377C139.374 17.733 139.827 16.948 140.151 16.023C140.473 15.098 140.635 14.05 140.635 12.877Z" fill="white"/>
<path d="M154.012 14.305C154.155 14.627 154.297 14.96 154.43 15.299C154.563 14.948 154.705 14.615 154.854 14.286C155.004 13.959 155.159 13.64 155.317 13.336L159.733 4.633C159.813 4.481 159.893 4.366 159.975 4.283C160.057 4.2 160.151 4.139 160.252 4.1C160.354 4.06 160.469 4.042 160.602 4.042C160.731 4.042 160.883 4.042 161.057 4.042H164.102V21.238H160.582V11.34C160.582 10.861 160.607 10.34 160.654 9.781L156.093 18.629C155.952 18.905 155.761 19.111 155.521 19.252C155.281 19.397 155.009 19.465 154.701 19.465H154.158C153.851 19.465 153.576 19.397 153.338 19.252C153.096 19.111 152.904 18.905 152.764 18.629L148.18 9.769C148.213 10.047 148.235 10.319 148.252 10.59C148.268 10.861 148.275 11.111 148.275 11.34V21.238H144.755V4.042H147.804C147.976 4.042 148.13 4.042 148.257 4.042C148.388 4.042 148.503 4.06 148.605 4.1C148.707 4.139 148.8 4.201 148.884 4.283C148.966 4.366 149.046 4.481 149.126 4.633L153.554 13.371C153.713 13.672 153.865 13.98 154.012 14.305ZM171.307 21.239H167.291V4.029H171.307V21.239ZM177.037 4.055C177.154 4.07 177.26 4.098 177.355 4.141C177.449 4.185 177.541 4.245 177.628 4.324C177.712 4.401 177.814 4.509 177.921 4.642L186.095 14.977C186.062 14.648 186.038 14.328 186.023 14.016C186.008 13.704 186.002 13.412 186.002 13.136V4.028H189.52V21.238H187.444C187.135 21.238 186.876 21.191 186.665 21.099C186.452 20.999 186.245 20.828 186.05 20.576L177.935 10.324C177.958 10.622 177.978 10.918 177.994 11.206C178.01 11.491 178.017 11.762 178.017 12.013V21.239H174.497V4.028H176.601C176.771 4.028 176.918 4.037 177.037 4.055ZM199.512 18.086C200.049 18.086 200.528 17.996 200.948 17.818C201.37 17.64 201.725 17.388 202.018 17.056C202.309 16.726 202.532 16.324 202.684 15.847C202.84 15.37 202.916 14.827 202.916 14.22V4.028H206.908V14.221C206.908 15.279 206.736 16.248 206.394 17.129C206.052 18.008 205.56 18.77 204.923 19.407C204.284 20.047 203.509 20.541 202.597 20.895C201.683 21.249 200.656 21.427 199.511 21.427C198.365 21.427 197.331 21.249 196.419 20.895C195.505 20.541 194.728 20.046 194.093 19.407C193.452 18.769 192.966 18.008 192.626 17.129C192.288 16.248 192.118 15.278 192.118 14.221V4.028H196.11V14.211C196.11 14.818 196.188 15.359 196.34 15.836C196.496 16.311 196.717 16.719 197.008 17.053C197.299 17.387 197.654 17.641 198.076 17.819C198.498 17.997 198.979 18.086 199.512 18.086ZM222.002 4.028V7.194H217.16V21.239H213.168V7.194H208.326V4.028H222.002ZM231.074 3.479C226.154 3.479 222.152 7.481 222.152 12.401C222.152 17.323 226.154 21.328 231.074 21.328C235.998 21.328 240 17.323 240 12.401C240 7.481 235.998 3.479 231.074 3.479ZM231.074 17.842C228.074 17.842 225.635 15.404 225.635 12.401C225.635 9.402 228.074 6.958 231.074 6.958C234.076 6.958 236.515 9.402 236.515 12.401C236.516 15.405 234.076 17.842 231.074 17.842ZM234.047 12.907H231.123V9.314C231.123 8.879 230.775 8.532 230.344 8.532C229.913 8.532 229.563 8.879 229.563 9.314V13.697C229.563 14.121 229.909 14.466 230.333 14.466H234.048C234.478 14.466 234.827 14.117 234.827 13.688C234.826 13.254 234.477 12.907 234.047 12.907Z" fill="white"/>
</svg>
