<svg width="85" height="20" viewBox="0 0 85 20" fill="none" xmlns="http://www.w3.org/2000/svg">
<g clip-path="url(#clip0)">
<path opacity="0.4" d="M20.7 0H4.6C3.1 0 1.5 1.2 1 2.8V2.9V3L0.1 10.5C0 10.7 0 10.9 0 11.2C0 12.7 1.1 13.8 2.6 13.9L4.2 14C4 14.7 3.6 15.4 3.2 16.1L1 19.3L4.5 17.7C5.7 17.2 7.9 16 9.3 14.4L16.9 15C17 15 17.1 15 17.1 15C18.6 15 19.9 13.9 20.5 12.1L23.4 3.4C23.5 3.1 23.5 2.8 23.5 2.6C23.5 1.8 23.3 1.2 22.8 0.7C22.2 0.3 21.5 0 20.7 0Z" fill="white"/>
<path d="M31.4 5.79999C31.3 5.39999 31.2 5.09999 31 4.89999C30.8 4.69999 30.6 4.59999 30.4 4.59999L30.3 4.39999L30.4 2.99999C30.7 2.99999 31 2.99999 31.3 2.99999C31.6 2.99999 31.8 2.99999 32.1 2.99999C32.4 2.99999 32.6001 2.99999 32.9001 2.99999C33.3001 2.99999 33.7 2.99999 34.1 2.99999C34.5 2.99999 34.9001 2.99999 35.2001 2.99999C35.6001 2.99999 35.9 2.99999 36.3 2.89999L36.4001 3.09999L36.3 4.59999C36 4.59999 35.8001 4.69999 35.7001 4.69999C35.5001 4.69999 35.4001 4.79999 35.4001 4.79999C35.3001 4.79999 35.3 4.89999 35.3 4.99999C35.3 5.09999 35.3 5.19999 35.3 5.29999C35.3 5.39999 35.3 5.59999 35.3 5.79999C35.3 5.99999 35.4001 6.29999 35.4001 6.59999C35.4001 6.89999 35.5 7.29999 35.6 7.69999C35.7 8.09999 35.7 8.49999 35.8 8.79999C35.9 9.69999 36.1 10.7 36.3 11.7H36.7001C37.0001 10.6 37.2001 9.49999 37.4001 8.59999C37.5001 8.19999 37.6001 7.79999 37.7001 7.39999C37.8001 6.99999 37.9001 6.59999 37.9001 6.29999C37.9001 5.99999 38 5.69999 38 5.39999C38 5.19999 38.1 4.99999 38.1 4.89999C38.1 4.69999 38.1 4.59999 38 4.59999C37.9 4.59999 37.8 4.49999 37.5 4.49999H37L36.9001 4.29999L37 2.99999C37.3 2.99999 37.6 2.99999 38 2.99999C38.3 2.99999 38.6001 2.99999 38.9001 2.99999C39.2001 2.99999 39.5 2.99999 39.8 2.99999H41.3C41.6 2.99999 41.8 2.99999 42 2.99999L41.9001 4.49999C41.7001 4.59999 41.5 4.69999 41.5 4.79999C41.4 4.89999 41.3001 5.19999 41.2001 5.49999L38.5 14.6L33.6 14.9C33.3 13.5 33.0001 12.3 32.7001 11.1C32.6001 10.6 32.5 10.1 32.3 9.59999C32.2 8.99999 32 8.49999 31.9 7.99999C31.8 7.49999 31.7 7.09999 31.6 6.69999C31.5 6.39999 31.5 5.99999 31.4 5.79999Z" fill="white"/>
<path d="M47.5001 14.9C45.7001 14.9 44.4001 14.4 43.5001 13.4C42.6001 12.4 42.1001 11 42.1001 9.09999C42.1001 7.09999 42.6001 5.49999 43.6001 4.49999C44.6001 3.39999 46.1001 2.89999 48.0001 2.89999C51.6001 2.89999 53.4001 4.79999 53.4001 8.59999C53.4001 10.6 52.9001 12.2 51.9001 13.3C50.9001 14.4 49.4001 14.9 47.5001 14.9ZM47.9001 12.6C48.4001 12.6 48.8001 12.4 49.0001 11.9C49.2001 11.5 49.3001 10.7 49.3001 9.59999C49.3001 8.79999 49.3001 8.09999 49.2001 7.49999C49.1001 6.89999 49.1001 6.49999 48.9001 6.09999C48.8001 5.79999 48.6001 5.49999 48.4001 5.39999C48.2001 5.19999 47.9001 5.19999 47.6001 5.19999C47.1001 5.19999 46.7001 5.39999 46.5001 5.89999C46.3001 6.29999 46.2001 7.09999 46.2001 8.09999C46.2001 8.89999 46.2001 9.59999 46.3001 10.2C46.4001 10.8 46.4001 11.2 46.6001 11.6C46.7001 11.9 46.9001 12.2 47.1001 12.4C47.3001 12.5 47.6001 12.6 47.9001 12.6Z" fill="white"/>
<path d="M63.6 14.7L55.9001 14.6L54.4001 14.8L53.8 13.8L59.7001 4.99999L58.3 5.19999C58 5.29999 57.7 5.29999 57.5 5.39999C57.3 5.49999 57.1 5.59999 57 5.69999C56.9 5.79999 56.8 5.99999 56.8 6.29999C56.8 6.49999 56.7001 6.79999 56.7001 7.19999L54.4001 7.39999C54.4001 6.89999 54.5 6.39999 54.5 5.89999C54.5 5.49999 54.6 4.99999 54.6 4.49999C54.6 3.99999 54.7001 3.49999 54.7001 3.09999L54.9001 2.89999L58 2.99999H64L64.4001 3.99999C63.7001 4.89999 63.1 5.79999 62.5 6.69999C61.9 7.59999 61.3 8.39999 60.8 9.19999C60.3 9.99999 59.8001 10.7 59.4001 11.3C59.0001 11.9 58.7001 12.4 58.4001 12.8L60.3 12.5C60.6 12.5 60.8 12.4 61 12.2C61.2 12.1 61.4 11.9 61.5 11.7C61.6 11.5 61.8 11.3 61.8 11C61.9 10.7 61.9 10.3 62 9.89999L64.3001 9.69999C64.2001 10.3 64.2 10.8 64.1 11.3C64 11.8 64 12.3 64 12.8C64 13.3 63.9001 13.8 63.9001 14.3L63.6 14.7Z" fill="white"/>
<path d="M69.5 11.5C69.5 11.7 69.5 11.9 69.5 12.1C69.5 12.2 69.6 12.3 69.6 12.4C69.7 12.5 69.7 12.5 69.9 12.6C70 12.6 70.2 12.6 70.4 12.6C70.8 12.6 71.1 12.6 71.4 12.5C71.6 12.5 71.8 12.4 72 12.2C72.2 12.1 72.3 11.9 72.3 11.6C72.4 11.4 72.4 11 72.5 10.6L74.8 10.4L75 10.7C74.9 11 74.9 11.4 74.8 11.8C74.7 12.1 74.7 12.5 74.6 13C74.5 13.4 74.5 13.9 74.4 14.4L74.1 14.7C73.5 14.7 72.9 14.7 72.3 14.6C71.7 14.6 71.1 14.6 70.4 14.5C69.7 14.5 69 14.5 68.3 14.5C67.8 14.5 67.4 14.5 66.9 14.5C66.5 14.5 66 14.5 65.7 14.6C65.3 14.6 64.9 14.7 64.5 14.7L64.7 13C65.2 12.9 65.5 12.8 65.6 12.6C65.8 12.4 65.8 12 65.8 11.5V5.49999C65.8 5.09999 65.8 4.89999 65.7 4.69999C65.6 4.59999 65.5 4.49999 65.3 4.49999C65.2 4.49999 65.2 4.49999 65.1 4.49999H65C65 4.49999 64.9 4.49999 64.8 4.49999L64.6 4.19999L65 2.99999C65.5 2.99999 66 2.99999 66.5 2.99999C66.9 2.99999 67.4 2.99999 67.9 2.99999C68.4 2.99999 68.8 2.99999 69.3 2.99999C69.9 2.99999 70.4 2.99999 71 2.99999C71.6 2.99999 72.1 2.99999 72.6 2.99999C73.1 2.99999 73.5 2.99999 73.9 2.89999C74.3 2.89999 74.6 2.79999 74.9 2.79999L75.1 3.09999C75 3.49999 75 3.89999 74.9 4.29999C74.9 4.59999 74.8 4.99999 74.8 5.49999C74.8 5.89999 74.7 6.29999 74.7 6.79999H72C72 6.69999 72 6.59999 72 6.49999C72 6.39999 72 6.39999 72 6.29999C72 6.19999 72 6.19999 72 6.09999C72 5.89999 72 5.69999 71.9 5.59999C71.9 5.49999 71.8 5.39999 71.6 5.29999C71.5 5.19999 71.3 5.19999 71.1 5.09999C70.9 5.09999 70.6 5.09999 70.2 5.09999C69.9 5.09999 69.8 5.09999 69.7 5.19999C69.6 5.29999 69.6 5.39999 69.6 5.59999L69.5 7.59999C69.7 7.59999 69.9 7.59999 70.2 7.59999C70.5 7.59999 70.7 7.59999 71 7.59999C71.1 7.59999 71.3 7.59999 71.5 7.59999C71.7 7.59999 71.9 7.59999 72.2 7.59999C72.5 7.59999 72.7 7.59999 73 7.49999L73.2 7.79999L73 9.89999C72.7 9.89999 72.5 9.89999 72.2 9.89999C72 9.89999 71.8 9.89999 71.5 9.89999C71.2 9.89999 71 9.89999 70.8 9.89999C70.5 9.89999 70.3 9.89999 70.1 9.89999C69.9 9.89999 69.7 9.89999 69.5 9.99999C69.5 10.3 69.5 10.6 69.5 10.8C69.5 11 69.5 11.3 69.5 11.5Z" fill="white"/>
<path d="M79.2 14.9C78.7 14.9 78.2 14.9 77.8 14.8C77.4 14.7 77 14.6 76.7 14.5C76.3 14.4 76 14.2 75.7 14.1L75.5 13.8C75.6 13.5 75.6 13.1 75.7 12.8C75.7 12.5 75.8 12.2 75.8 11.8C75.8 11.4 75.9 11.1 75.9 10.8L78.2 10.6C78.2 11.2 78.3 11.7 78.6 12C78.9 12.3 79.3 12.4 79.8 12.4C80.2 12.4 80.5 12.3 80.7 12.2C80.9 12.1 81 11.9 81 11.7C81 11.5 80.9 11.3 80.8 11.2C80.7 11 80.5 10.9 80.2 10.8C80 10.7 79.7 10.5 79.4 10.4C79.1 10.3 78.8 10.1 78.5 9.99999C78.2 9.79999 77.8 9.69999 77.5 9.49999C77.2 9.29999 76.9 9.09999 76.6 8.79999C76.3 8.49999 76.1 8.19999 76 7.89999C75.8 7.59999 75.8 7.09999 75.8 6.69999C75.8 6.09999 75.9 5.59999 76.2 5.09999C76.5 4.59999 76.8 4.19999 77.3 3.89999C77.8 3.59999 78.4 3.29999 79.1 3.09999C79.8 2.89999 80.5 2.79999 81.4 2.79999C81.9 2.79999 82.4 2.79999 82.8 2.89999C82.9 2.99999 83.2 2.99999 83.6 3.09999C84 3.19999 84.3 3.29999 84.6 3.39999L84.8 3.79999C84.7 4.09999 84.7 4.39999 84.6 4.79999C84.5 5.09999 84.5 5.39999 84.4 5.79999C84.4 6.19999 84.3 6.59999 84.3 6.99999H82.2L82 6.79999V6.59999C82 5.79999 81.6 5.29999 80.7 5.29999C80.4 5.29999 80.1 5.39999 79.9 5.49999C79.7 5.59999 79.6 5.79999 79.6 6.09999C79.6 6.29999 79.7 6.39999 79.8 6.59999C79.8 6.69999 80 6.89999 80.2 6.99999C80.4 7.09999 80.6 7.19999 80.9 7.39999C81.2 7.49999 81.5 7.59999 81.8 7.79999C82.2 7.99999 82.5 8.09999 82.9 8.29999C83.3 8.49999 83.6 8.69999 83.9 8.99999C84.2 9.29999 84.4 9.59999 84.6 9.89999C84.8 10.3 84.9 10.7 84.9 11.2C84.9 11.8 84.8 12.3 84.5 12.8C84.2 13.3 83.9 13.7 83.4 14C82.9 14.3 82.3 14.6 81.6 14.7C80.9 14.8 80.1 14.9 79.2 14.9Z" fill="white"/>
</g>
<defs>
<clipPath id="clip0">
<rect width="84.8" height="19.3" fill="white"/>
</clipPath>
</defs>
</svg>
