<svg width="56" height="34" viewBox="0 0 56 34" fill="none" xmlns="http://www.w3.org/2000/svg">
<path d="M49.8174 0C47.7962 2.45688 46.3892 4.87413 45.5966 7.25175C44.8436 9.62937 44.4671 11.8881 44.4671 14.028C45.8146 14.028 47.1819 14.127 48.569 14.3252C49.9561 14.5233 51.1847 14.8403 52.2548 15.2762C53.3645 15.7121 54.2562 16.2669 54.9299 16.9406C55.6433 17.6142 56 18.4266 56 19.3776V28.0559C56 29.0862 55.6433 29.9779 54.9299 30.7308C54.2562 31.4837 53.3645 32.0979 52.2548 32.5734C51.1451 33.049 49.8967 33.4056 48.5096 33.6434C47.1224 33.8811 45.7353 34 44.3482 34C42.8818 34 41.4352 33.8811 40.0085 33.6434C38.6214 33.4056 37.373 33.049 36.2633 32.5734C35.1536 32.0979 34.2619 31.4837 33.5881 30.7308C32.9144 29.9779 32.5775 29.0862 32.5775 28.0559V23.0629C32.5775 21.9534 32.6369 20.4277 32.7558 18.486C32.9144 16.5047 33.2512 14.4044 33.7665 12.1853C34.3213 9.9662 35.0941 7.7669 36.0849 5.58741C37.0757 3.40793 38.443 1.54545 40.1868 0H49.8174ZM17.3588 0C15.3376 2.45688 13.9108 4.87413 13.0786 7.25175C12.2859 9.62937 11.8896 11.8881 11.8896 14.028C13.2767 14.028 14.6638 14.127 16.051 14.3252C17.4381 14.5233 18.6667 14.8403 19.7367 15.2762C20.8464 15.7121 21.7381 16.2669 22.4119 16.9406C23.0856 17.6142 23.4225 18.4266 23.4225 19.3776V28.0559C23.4225 29.0862 23.0856 29.9779 22.4119 30.7308C21.7381 31.4837 20.8464 32.0979 19.7367 32.5734C18.627 33.049 17.3786 33.4056 15.9915 33.6434C14.6044 33.8811 13.1975 34 11.7707 34C10.3439 34 8.9172 33.8811 7.49045 33.6434C6.10333 33.4056 4.85492 33.049 3.74522 32.5734C2.63553 32.0979 1.72399 31.4837 1.01062 30.7308C0.336872 29.9779 0 29.0862 0 28.0559V23.0629C0 21.9534 0.059448 20.4277 0.178344 18.486C0.336872 16.5047 0.673744 14.4044 1.18896 12.1853C1.74381 9.9662 2.51663 7.7669 3.50743 5.58741C4.49823 3.40793 5.86553 1.54545 7.60934 0H17.3588Z" fill="#A9EFBA"/>
</svg>
